<svg width="200" height="65" viewBox="0 0 200 65" fill="none" xmlns="http://www.w3.org/2000/svg">
<g clip-path="url(#clip0_1_113)">
<path opacity="0.963" fill-rule="evenodd" clip-rule="evenodd" d="M30.375 -0.0299683C31.6544 -0.0299683 32.9338 -0.0299683 34.2131 -0.0299683C43.8415 0.750673 51.6875 4.86862 57.7513 12.3239C63.5564 20.0328 65.6554 28.6685 64.0482 38.2309C62.5717 45.6544 59.0037 51.8413 53.3435 56.7916C47.7028 61.5347 41.186 64.1236 33.7933 64.5577C32.7938 64.5577 31.7943 64.5577 30.7948 64.5577C20.9932 63.9005 13.0072 59.7823 6.83678 52.2039C2.59869 46.6973 0.309835 40.4604 -0.0297852 33.4933C-0.0297852 32.6737 -0.0297852 31.8541 -0.0297852 31.0345C0.59776 20.7124 4.99556 12.4265 13.1636 6.17693C18.2967 2.46331 24.0338 0.394344 30.375 -0.0299683ZM31.0347 1.46928C42.0061 1.36307 50.7717 5.66092 57.3315 14.3628C62.2371 21.4568 63.9762 29.2729 62.5489 37.8111C60.6257 47.2133 55.538 54.3197 47.2866 59.1305C39.5785 63.2738 31.5225 64.1134 23.1186 61.6492C14.0935 58.6207 7.66671 52.7537 3.83828 44.048C0.810365 36.471 0.710419 28.8548 3.53843 21.1994C7.08146 12.539 13.2284 6.55192 21.9792 3.2384C24.9227 2.21987 27.9412 1.63016 31.0347 1.46928Z" fill="#F9FAFB"/>
<path opacity="0.997" fill-rule="evenodd" clip-rule="evenodd" d="M30.6147 2.84856C40.0368 2.55868 47.9229 5.85703 54.2728 12.7436C60.5379 20.1708 62.7766 28.6865 60.9895 38.2908C58.7639 47.7513 53.2966 54.6179 44.5877 58.8905C38.343 61.6839 31.8863 62.3034 25.2174 60.7496C18.3928 59.0038 12.8655 55.3356 8.63564 49.7451C3.33251 42.2799 1.69333 34.064 3.7181 25.0974C5.76833 17.3738 10.1561 11.3868 16.8815 7.13641C21.1123 4.59003 25.69 3.16075 30.6147 2.84856Z" fill="#F9FAFB"/>
<path opacity="0.935" fill-rule="evenodd" clip-rule="evenodd" d="M74.0328 11.1244C75.237 10.9675 76.3567 11.1973 77.3911 11.8141C77.6196 11.9728 77.8199 12.1627 77.9908 12.3838C77.8109 12.6037 77.6112 12.8036 77.3911 12.9835C76.034 11.8226 74.5546 11.6528 72.9534 12.4737C71.5836 13.4448 71.0739 14.7541 71.4241 16.4018C71.9962 18.0475 73.1555 18.8871 74.9024 18.9205C75.8541 18.93 76.6637 18.6002 77.3312 17.931C77.3713 17.891 77.4109 17.891 77.4511 17.931C77.6208 18.1009 77.7911 18.2709 77.9609 18.4408C78.001 18.4808 78.001 18.5207 77.9609 18.5607C77.4115 19.1405 76.7417 19.5103 75.9519 19.6701C74.0412 20.0653 72.452 19.5356 71.1842 18.0809C70.2697 16.6375 70.13 15.1182 70.7644 13.5232C71.4751 12.2023 72.5647 11.4026 74.0328 11.1244Z" fill="#F9FAFB"/>
<path opacity="0.94" fill-rule="evenodd" clip-rule="evenodd" d="M82.5488 11.1244C84.4835 10.8683 86.0325 11.508 87.1965 13.0435C87.8958 14.349 88.0157 15.7083 87.5563 17.1214C86.7299 18.8948 85.3308 19.7744 83.3584 19.7601C81.1995 19.7382 79.7602 18.7187 79.0406 16.7017C78.5518 14.6289 79.1611 12.9797 80.8697 11.7541C81.4076 11.4652 81.9671 11.2553 82.5488 11.1244ZM82.7887 11.964C84.5932 11.7911 85.8826 12.5107 86.6568 14.1229C87.2313 15.9384 86.7413 17.3877 85.1875 18.4708C83.5887 19.2277 82.1195 19.0378 80.7797 17.9011C79.4628 16.2454 79.473 14.5962 80.8097 12.9535C81.377 12.4301 82.0367 12.1003 82.7887 11.964Z" fill="#F9FAFB"/>
<path opacity="0.978" fill-rule="evenodd" clip-rule="evenodd" d="M104.138 11.1245C106.097 11.1245 108.056 11.1245 110.015 11.1245C110.015 11.4043 110.015 11.6842 110.015 11.964C108.355 11.964 106.697 11.964 105.037 11.964C105.037 12.9835 105.037 14.003 105.037 15.0225C106.517 15.0225 107.996 15.0225 109.475 15.0225C109.475 15.2824 109.475 15.5423 109.475 15.8021C107.996 15.8021 106.517 15.8021 105.037 15.8021C105.037 16.8416 105.037 17.8811 105.037 18.9206C106.757 18.9206 108.475 18.9206 110.195 18.9206C110.195 19.1804 110.195 19.4403 110.195 19.7002C108.175 19.7002 106.157 19.7002 104.138 19.7002C104.138 16.8416 104.138 13.983 104.138 11.1245Z" fill="#F9FAFB"/>
<path opacity="0.938" fill-rule="evenodd" clip-rule="evenodd" d="M115.172 11.1244C116.548 10.9298 117.787 11.2396 118.891 12.054C119.002 12.155 119.102 12.2649 119.19 12.3838C119.011 12.6037 118.811 12.8036 118.591 12.9835C117.339 11.8928 115.94 11.663 114.393 12.2939C113.119 12.9516 112.439 14.0011 112.354 15.4423C112.47 17.2273 113.39 18.3567 115.113 18.8306C115.997 19.0033 116.856 18.9234 117.691 18.5907C117.877 18.5044 118.047 18.3944 118.201 18.2609C118.231 17.3216 118.241 16.382 118.231 15.4423C118.531 15.4423 118.831 15.4423 119.131 15.4423C119.141 16.5419 119.131 17.6414 119.101 18.7406C117.819 19.6892 116.39 19.9991 114.813 19.6702C112.38 18.9548 111.271 17.3256 111.484 14.7826C111.911 12.7468 113.14 11.5274 115.172 11.1244Z" fill="#F9FAFB"/>
<path opacity="0.978" fill-rule="evenodd" clip-rule="evenodd" d="M121.649 11.1245C123.609 11.1245 125.567 11.1245 127.526 11.1245C127.526 11.4043 127.526 11.6842 127.526 11.964C125.867 11.964 124.208 11.964 122.549 11.964C122.549 12.9835 122.549 14.003 122.549 15.0225C124.028 15.0225 125.507 15.0225 126.987 15.0225C126.987 15.2824 126.987 15.5423 126.987 15.8021C125.507 15.8021 124.028 15.8021 122.549 15.8021C122.549 16.8416 122.549 17.8811 122.549 18.9206C124.268 18.9206 125.987 18.9206 127.706 18.9206C127.706 19.1804 127.706 19.4403 127.706 19.7002C125.687 19.7002 123.669 19.7002 121.649 19.7002C121.649 16.8416 121.649 13.983 121.649 11.1245Z" fill="#F9FAFB"/>
<path opacity="0.94" fill-rule="evenodd" clip-rule="evenodd" d="M135.802 11.1244C137.737 10.8683 139.286 11.508 140.45 13.0435C141.149 14.349 141.269 15.7083 140.81 17.1214C139.983 18.8948 138.584 19.7744 136.612 19.7601C134.453 19.7382 133.014 18.7187 132.294 16.7017C131.805 14.6289 132.415 12.9797 134.123 11.7541C134.661 11.4652 135.221 11.2553 135.802 11.1244ZM136.042 11.964C137.847 11.7911 139.136 12.5107 139.91 14.1229C140.485 15.9384 139.995 17.3877 138.441 18.4708C136.842 19.2277 135.373 19.0378 134.033 17.9011C132.716 16.2454 132.726 14.5962 134.063 12.9535C134.63 12.4301 135.29 12.1003 136.042 11.964Z" fill="#F9FAFB"/>
<path opacity="0.978" fill-rule="evenodd" clip-rule="evenodd" d="M143.119 11.1245C145.078 11.1245 147.036 11.1245 148.996 11.1245C148.996 11.4043 148.996 11.6842 148.996 11.964C147.336 11.964 145.678 11.964 144.018 11.964C144.018 13.0835 144.018 14.2029 144.018 15.3224C145.498 15.3224 146.977 15.3224 148.456 15.3224C148.456 15.5822 148.456 15.8421 148.456 16.102C146.977 16.102 145.498 16.102 144.018 16.102C144.018 17.3014 144.018 18.5008 144.018 19.7002C143.718 19.7002 143.419 19.7002 143.119 19.7002C143.119 16.8416 143.119 13.983 143.119 11.1245Z" fill="#F9FAFB"/>
<path opacity="0.998" fill-rule="evenodd" clip-rule="evenodd" d="M89.8652 11.1844C90.1651 11.1844 90.4649 11.1844 90.7648 11.1844C90.7648 13.7631 90.7648 16.3418 90.7648 18.9205C92.3642 18.9205 93.963 18.9205 95.5624 18.9205C95.5624 19.1804 95.5624 19.4403 95.5624 19.7001C93.6631 19.7001 91.7645 19.7001 89.8652 19.7001C89.8652 16.8616 89.8652 14.0229 89.8652 11.1844Z" fill="#F9FAFB"/>
<path opacity="0.998" fill-rule="evenodd" clip-rule="evenodd" d="M97.0015 11.1844C97.3013 11.1844 97.6012 11.1844 97.901 11.1844C97.901 13.7631 97.901 16.3418 97.901 18.9205C99.5004 18.9205 101.099 18.9205 102.699 18.9205C102.699 19.1804 102.699 19.4403 102.699 19.7001C100.799 19.7001 98.9007 19.7001 97.0015 19.7001C97.0015 16.8616 97.0015 14.0229 97.0015 11.1844Z" fill="#F9FAFB"/>
<path fill-rule="evenodd" clip-rule="evenodd" d="M49.2054 34.7526C49.2054 34.3129 49.2054 33.873 49.2054 33.4333C43.3083 33.4333 37.4113 33.4333 31.5142 33.4333C30.68 33.2893 30.1304 32.8095 29.865 31.994C29.6928 30.6885 30.2424 29.8789 31.5142 29.5652C34.3328 29.5352 37.1513 29.5252 39.97 29.5352C39.2477 26.7034 37.5285 24.7345 34.8126 23.6282C30.8187 22.3543 27.5104 23.3438 24.8875 26.5967C23.1566 29.2239 22.8767 32.0025 24.048 34.9325C25.6291 38.1311 28.2078 39.8103 31.7841 39.97C35.0784 39.8477 37.5671 38.3785 39.2504 35.5622C39.6897 35.5322 40.1295 35.5223 40.5697 35.5322C42.2089 35.5722 43.8481 35.6122 45.4872 35.6522C44.1278 39.9604 41.3692 43.0089 37.2114 44.7976C31.6344 46.8199 26.5969 45.9204 22.0989 42.099C19.8817 40.0239 18.4225 37.5052 17.7211 34.5427C16.1706 34.0225 14.6114 33.5328 13.0435 33.0735C12.9712 32.0521 12.9712 31.0326 13.0435 30.015C14.5963 29.4868 16.1555 28.9771 17.7211 28.4858C17.9414 27.5951 18.2313 26.7256 18.5907 25.8771C18.6288 25.749 18.6087 25.6291 18.5307 25.5172C17.5896 24.2663 16.6601 23.007 15.7421 21.7391C16.2275 20.9481 16.7573 20.1885 17.3313 19.4603C17.3886 19.3767 17.4686 19.3367 17.5712 19.3403C19.1346 19.8682 20.7038 20.358 22.2788 20.8096C22.9611 20.1672 23.7107 19.6175 24.5277 19.1604C24.5477 17.5012 24.5677 15.8421 24.5877 14.1829C25.4808 13.7619 26.4103 13.4421 27.3763 13.2234C28.3655 14.5428 29.345 15.8722 30.3148 17.2114C31.2943 17.1714 32.2739 17.1714 33.2534 17.2114C34.1903 15.9273 35.1198 14.638 36.042 13.3433C36.0955 13.3085 36.1555 13.2885 36.2219 13.2834C37.1694 13.4993 38.0889 13.7991 38.9805 14.1829C39.0005 15.8421 39.0205 17.5012 39.0405 19.1604C39.8574 19.6175 40.6071 20.1672 41.2893 20.8096C42.7864 20.344 44.2856 19.8642 45.7871 19.3703C45.9118 19.3219 46.0317 19.3319 46.1469 19.4003C46.7801 20.127 47.3399 20.9066 47.8261 21.7391C46.8216 23.0492 45.8621 24.3885 44.9475 25.7571C45.4654 26.9692 45.8053 28.2286 45.967 29.5352C47.0465 29.5352 48.1259 29.5352 49.2054 29.5352C49.1856 29.1135 49.2056 28.6937 49.2653 28.2759C50.723 29.3342 52.1623 30.4136 53.5832 31.5142C52.1565 32.6374 50.6972 33.7169 49.2054 34.7526Z" fill="#030711"/>
<path opacity="0.977" fill-rule="evenodd" clip-rule="evenodd" d="M98.6808 22.8786C100.013 22.8717 101.252 23.2015 102.399 23.8681C102.785 24.1243 103.125 24.4341 103.418 24.7976C102.878 25.3377 102.319 25.8574 101.739 26.3568C100.768 25.3501 99.5888 24.9603 98.2011 25.1874C96.4032 25.5965 95.4634 26.726 95.3825 28.5757C95.569 30.7415 96.7486 31.9009 98.9207 32.054C99.587 32.0299 100.217 31.8699 100.81 31.5742C100.84 30.5149 100.85 29.4555 100.84 28.3958C101.619 28.3958 102.399 28.3958 103.179 28.3958C103.189 29.8952 103.179 31.3944 103.149 32.8935C101.305 34.1219 99.2961 34.5117 97.1216 34.063C94.7186 33.4394 93.2895 31.9102 92.8338 29.4753C92.5327 26.3869 93.8221 24.298 96.7018 23.2084C97.3597 23.0321 98.0194 22.9222 98.6808 22.8786Z" fill="#F9FAFB"/>
<path opacity="0.977" fill-rule="evenodd" clip-rule="evenodd" d="M178.561 22.8786C179.893 22.8717 181.132 23.2015 182.279 23.8681C182.665 24.1243 183.005 24.4341 183.298 24.7976C182.758 25.3377 182.198 25.8574 181.619 26.3568C180.648 25.3501 179.469 24.9603 178.081 25.1874C176.283 25.5965 175.343 26.726 175.262 28.5757C175.449 30.7415 176.628 31.9009 178.801 32.054C179.467 32.0299 180.097 31.8699 180.69 31.5742C180.72 30.5149 180.73 29.4555 180.72 28.3958C181.499 28.3958 182.279 28.3958 183.058 28.3958C183.069 29.8952 183.058 31.3944 183.028 32.8935C181.185 34.1219 179.176 34.5117 177.001 34.063C174.598 33.4394 173.169 31.9102 172.714 29.4753C172.413 26.3869 173.702 24.298 176.582 23.2084C177.24 23.0321 177.899 22.9222 178.561 22.8786Z" fill="#F9FAFB"/>
<path opacity="0.975" fill-rule="evenodd" clip-rule="evenodd" d="M193.013 22.9385C193.554 22.9286 194.093 22.9385 194.632 22.9685C196.389 23.2654 197.159 24.2949 196.941 26.057C196.697 26.8019 196.247 27.3916 195.592 27.8261C195.362 27.9511 195.142 28.091 194.932 28.2459C195.562 28.8356 196.192 29.4253 196.821 30.015C197.053 29.4692 197.243 28.9095 197.391 28.3358C198.044 28.5603 198.704 28.7602 199.37 28.9355C199.204 29.8345 198.884 30.6741 198.411 31.4543C198.826 31.8512 199.226 32.261 199.61 32.6837C199.219 33.2045 198.799 33.7043 198.351 34.1829C198.291 34.2229 198.231 34.2229 198.171 34.1829C197.782 33.7992 197.383 33.4293 196.971 33.0735C195.236 34.2521 193.358 34.542 191.334 33.943C190.553 33.6682 189.923 33.1985 189.445 32.5337C188.792 30.9772 189.122 29.6679 190.435 28.6057C190.775 28.3758 191.114 28.1459 191.454 27.9161C190.811 27.2799 190.471 26.5102 190.435 25.6072C190.474 24.4476 191.034 23.648 192.114 23.2084C192.418 23.1077 192.718 23.0177 193.013 22.9385ZM193.553 24.6177C194.709 24.5626 195.079 25.0623 194.662 26.117C194.323 26.4365 193.943 26.6963 193.523 26.8966C193.067 26.58 192.777 26.1502 192.653 25.6072C192.737 25.074 193.037 24.7442 193.553 24.6177ZM192.833 29.2354C193.722 30.0306 194.602 30.8402 195.472 31.6642C194.374 32.3838 193.235 32.4638 192.054 31.9041C191.489 31.3815 191.399 30.7918 191.784 30.1349C192.092 29.7758 192.442 29.476 192.833 29.2354Z" fill="#F9FAFB"/>
<path opacity="0.996" fill-rule="evenodd" clip-rule="evenodd" d="M70.4346 23.1184C73.1932 23.1184 75.9518 23.1184 78.7104 23.1184C78.7104 23.7981 78.7104 24.4778 78.7104 25.1574C76.7914 25.1574 74.8724 25.1574 72.9533 25.1574C72.9533 25.937 72.9533 26.7166 72.9533 27.4962C74.6523 27.4962 76.3518 27.4962 78.0508 27.4962C78.0508 28.1559 78.0508 28.8156 78.0508 29.4753C76.3518 29.4753 74.6523 29.4753 72.9533 29.4753C72.9533 30.3148 72.9533 31.1544 72.9533 31.994C74.9521 31.994 76.9515 31.994 78.9503 31.994C78.9503 32.6736 78.9503 33.3533 78.9503 34.033C76.1119 34.033 73.273 34.033 70.4346 34.033C70.4346 30.3948 70.4346 26.7566 70.4346 23.1184Z" fill="#F9FAFB"/>
<path opacity="0.988" fill-rule="evenodd" clip-rule="evenodd" d="M80.8696 23.1184C81.5893 23.1084 82.3089 23.1184 83.0285 23.1484C84.8402 25.2999 86.6291 27.4688 88.3959 29.6552C88.4259 27.4763 88.436 25.2975 88.4259 23.1184C89.2654 23.1184 90.105 23.1184 90.9446 23.1184C90.9446 26.7566 90.9446 30.3948 90.9446 34.033C90.225 34.043 89.5053 34.033 88.7857 34.003C86.974 31.8516 85.1851 29.6826 83.4184 27.4963C83.3884 29.6751 83.3782 31.854 83.3884 34.033C82.5488 34.033 81.7092 34.033 80.8696 34.033C80.8696 30.3948 80.8696 26.7566 80.8696 23.1184Z" fill="#F9FAFB"/>
<path opacity="0.983" fill-rule="evenodd" clip-rule="evenodd" d="M105.517 23.1184C106.376 23.1184 107.236 23.1184 108.096 23.1184C108.096 26.7566 108.096 30.3948 108.096 34.033C107.236 34.033 106.376 34.033 105.517 34.033C105.517 30.3948 105.517 26.7566 105.517 23.1184Z" fill="#F9FAFB"/>
<path opacity="0.988" fill-rule="evenodd" clip-rule="evenodd" d="M110.615 23.1184C111.334 23.1084 112.054 23.1184 112.774 23.1484C114.585 25.2999 116.374 27.4688 118.141 29.6552C118.171 27.4763 118.181 25.2975 118.171 23.1184C119.011 23.1184 119.85 23.1184 120.69 23.1184C120.69 26.7566 120.69 30.3948 120.69 34.033C119.97 34.043 119.25 34.033 118.531 34.003C116.719 31.8516 114.93 29.6826 113.163 27.4963C113.133 29.6751 113.123 31.854 113.133 34.033C112.294 34.033 111.454 34.033 110.615 34.033C110.615 30.3948 110.615 26.7566 110.615 23.1184Z" fill="#F9FAFB"/>
<path opacity="0.996" fill-rule="evenodd" clip-rule="evenodd" d="M123.269 23.1184C126.027 23.1184 128.786 23.1184 131.544 23.1184C131.544 23.7981 131.544 24.4778 131.544 25.1574C129.625 25.1574 127.706 25.1574 125.787 25.1574C125.787 25.937 125.787 26.7166 125.787 27.4962C127.486 27.4962 129.186 27.4962 130.885 27.4962C130.885 28.1559 130.885 28.8156 130.885 29.4753C129.186 29.4753 127.486 29.4753 125.787 29.4753C125.787 30.3148 125.787 31.1544 125.787 31.994C127.786 31.994 129.785 31.994 131.784 31.994C131.784 32.6736 131.784 33.3533 131.784 34.033C128.946 34.033 126.107 34.033 123.269 34.033C123.269 30.3948 123.269 26.7566 123.269 23.1184Z" fill="#F9FAFB"/>
<path opacity="0.996" fill-rule="evenodd" clip-rule="evenodd" d="M133.763 23.1184C136.522 23.1184 139.28 23.1184 142.039 23.1184C142.039 23.7981 142.039 24.4778 142.039 25.1574C140.12 25.1574 138.201 25.1574 136.282 25.1574C136.282 25.937 136.282 26.7166 136.282 27.4962C137.981 27.4962 139.68 27.4962 141.379 27.4962C141.379 28.1559 141.379 28.8156 141.379 29.4753C139.68 29.4753 137.981 29.4753 136.282 29.4753C136.282 30.3148 136.282 31.1544 136.282 31.994C138.281 31.994 140.28 31.994 142.279 31.994C142.279 32.6736 142.279 33.3533 142.279 34.033C139.441 34.033 136.602 34.033 133.763 34.033C133.763 30.3948 133.763 26.7566 133.763 23.1184Z" fill="#F9FAFB"/>
<path opacity="0.981" fill-rule="evenodd" clip-rule="evenodd" d="M144.198 23.1184C146.117 23.1084 148.036 23.1184 149.955 23.1484C152.617 23.5312 153.867 25.0605 153.703 27.7361C153.468 29.0567 152.738 29.9862 151.514 30.5247C152.319 31.6947 153.139 32.8541 153.973 34.003C153.033 34.043 152.094 34.043 151.154 34.003C150.44 33.014 149.74 32.0145 149.055 31.0045C148.296 30.9745 147.536 30.9645 146.776 30.9745C146.776 31.994 146.776 33.0135 146.776 34.033C145.917 34.033 145.057 34.033 144.198 34.033C144.198 30.3948 144.198 26.7566 144.198 23.1184ZM146.776 25.2174C147.656 25.2074 148.536 25.2174 149.415 25.2474C150.478 25.4009 151.058 26.0106 151.154 27.0765C151.051 28.1697 150.451 28.7794 149.355 28.9055C148.496 28.9355 147.636 28.9455 146.776 28.9355C146.776 27.6961 146.776 26.4568 146.776 25.2174Z" fill="#F9FAFB"/>
<path opacity="0.983" fill-rule="evenodd" clip-rule="evenodd" d="M155.652 23.1184C156.512 23.1184 157.372 23.1184 158.231 23.1184C158.231 26.7566 158.231 30.3948 158.231 34.033C157.372 34.033 156.512 34.033 155.652 34.033C155.652 30.3948 155.652 26.7566 155.652 23.1184Z" fill="#F9FAFB"/>
<path opacity="0.988" fill-rule="evenodd" clip-rule="evenodd" d="M160.75 23.1184C161.469 23.1084 162.189 23.1184 162.908 23.1484C164.72 25.2999 166.509 27.4688 168.276 29.6552C168.306 27.4763 168.316 25.2975 168.306 23.1184C169.145 23.1184 169.985 23.1184 170.824 23.1184C170.824 26.7566 170.824 30.3948 170.824 34.033C170.105 34.043 169.385 34.033 168.666 34.003C166.854 31.8516 165.065 29.6826 163.298 27.4963C163.268 29.6751 163.258 31.854 163.268 34.033C162.429 34.033 161.589 34.033 160.75 34.033C160.75 30.3948 160.75 26.7566 160.75 23.1184Z" fill="#F9FAFB"/>
<path fill-rule="evenodd" clip-rule="evenodd" d="M31.5142 33.4333C37.4112 33.4333 43.3083 33.4333 49.2053 33.4333C49.2053 33.873 49.2053 34.3129 49.2053 34.7526C49.1459 34.3441 49.1259 33.9243 49.1453 33.4933C43.2582 33.5132 37.3811 33.4932 31.5142 33.4333Z" fill="#F9FAFB"/>
<path fill-rule="evenodd" clip-rule="evenodd" d="M13.4033 35.3523C14.3153 35.6464 15.2248 35.9462 16.132 36.2519C18.1736 42.2315 22.2616 45.9797 28.3958 47.4963C33.8943 48.4812 38.7318 47.1419 42.9086 43.4783C44.9525 41.5329 46.4417 39.224 47.3763 36.5517C48.1129 36.8339 48.8625 37.0738 49.6252 37.2714C48.1546 41.802 45.376 45.2903 41.2894 47.7361C35.8444 50.7406 30.2272 51.1004 24.4378 48.8156C18.5543 46.14 14.8761 41.6523 13.4033 35.3523Z" fill="#030711"/>
<path fill-rule="evenodd" clip-rule="evenodd" d="M40.5698 35.5322C42.2295 35.5123 43.8886 35.5322 45.5473 35.5922C45.5399 35.6286 45.5199 35.6486 45.4874 35.6522C43.8482 35.6122 42.209 35.5722 40.5698 35.5322Z" fill="#F9FAFB"/>
<path opacity="0.974" fill-rule="evenodd" clip-rule="evenodd" d="M96.9414 39.9101C98.7099 39.8826 100.219 40.4823 101.469 41.7092C101.499 41.7691 101.529 41.8291 101.559 41.8891C101.02 42.4181 100.47 42.9378 99.9099 43.4483C98.8364 42.2539 97.5273 41.8841 95.9818 42.3388C94.5096 42.923 93.7498 44.0125 93.703 45.6072C93.8823 47.7456 95.0415 48.905 97.1813 49.0855C98.2889 49.0314 99.2082 48.5917 99.9399 47.7661C100.478 48.2348 101.009 48.7145 101.529 49.2054C101.569 49.2654 101.569 49.3253 101.529 49.3853C100.327 50.6706 98.8376 51.3103 97.0613 51.3044C95.0715 51.2936 93.4421 50.534 92.1738 49.0255C91.1579 47.5244 90.858 45.8853 91.2742 44.108C91.8985 41.9843 93.288 40.6549 95.4421 40.1199C95.9471 40.0217 96.4466 39.9517 96.9414 39.9101Z" fill="#F9FAFB"/>
<path opacity="0.978" fill-rule="evenodd" clip-rule="evenodd" d="M133.643 39.9101C135.593 39.8829 137.222 40.5826 138.531 42.009C139.896 43.8865 140.136 45.9054 139.25 48.066C138.375 49.7799 136.986 50.8094 135.082 51.1544C133.129 51.5114 131.35 51.1117 129.745 49.955C127.791 48.1216 127.261 45.9327 128.156 43.3883C129.024 41.5612 130.453 40.4517 132.444 40.06C132.852 40.007 133.252 39.957 133.643 39.9101ZM133.583 42.129C135.784 42.2511 136.984 43.4105 137.181 45.6072C137.009 47.7188 135.869 48.8782 133.763 49.0855C131.656 48.8771 130.516 47.7176 130.345 45.6072C130.5 43.5739 131.579 42.4145 133.583 42.129Z" fill="#F9FAFB"/>
<path opacity="0.978" fill-rule="evenodd" clip-rule="evenodd" d="M156.072 39.9101C158.022 39.8829 159.65 40.5826 160.959 42.009C162.324 43.8865 162.564 45.9054 161.679 48.066C160.804 49.7799 159.415 50.8094 157.511 51.1544C155.558 51.5114 153.779 51.1117 152.174 49.955C150.219 48.1216 149.69 45.9327 150.585 43.3883C151.453 41.5612 152.882 40.4517 154.872 40.06C155.281 40.007 155.681 39.957 156.072 39.9101ZM156.012 42.129C158.213 42.2511 159.412 43.4105 159.61 45.6072C159.437 47.7188 158.298 48.8782 156.192 49.0855C154.084 48.8771 152.945 47.7176 152.774 45.6072C152.928 43.5739 154.008 42.4145 156.012 42.129Z" fill="#F9FAFB"/>
<path opacity="0.977" fill-rule="evenodd" clip-rule="evenodd" d="M169.205 39.91C170.537 39.9032 171.776 40.233 172.923 40.8996C173.31 41.1557 173.65 41.4656 173.943 41.8291C173.403 42.3692 172.843 42.8889 172.264 43.3883C171.293 42.3816 170.113 41.9918 168.725 42.2189C166.928 42.628 165.988 43.7575 165.907 45.6072C166.093 47.773 167.273 48.9324 169.445 49.0855C170.111 49.0614 170.741 48.9014 171.334 48.6057C171.364 47.5464 171.374 46.487 171.364 45.4273C172.144 45.4273 172.923 45.4273 173.703 45.4273C173.713 46.9267 173.703 48.4259 173.673 49.925C171.83 51.1533 169.821 51.5432 167.646 51.0945C165.243 50.4709 163.814 48.9417 163.358 46.5068C163.057 43.4184 164.346 41.3295 167.226 40.2399C167.884 40.0636 168.544 39.9536 169.205 39.91Z" fill="#F9FAFB"/>
<path opacity="0.982" fill-rule="evenodd" clip-rule="evenodd" d="M70.4346 40.1499C73.6328 40.1499 76.8316 40.1499 80.0298 40.1499C80.0298 40.8496 80.0298 41.5492 80.0298 42.2489C78.8706 42.2489 77.7107 42.2489 76.5515 42.2489C76.5515 45.1874 76.5515 48.1259 76.5515 51.0645C75.6921 51.0645 74.8322 51.0645 73.9728 51.0645C73.9728 48.1259 73.9728 45.1874 73.9728 42.2489C72.7932 42.2489 71.6142 42.2489 70.4346 42.2489C70.4346 41.5492 70.4346 40.8496 70.4346 40.1499Z" fill="#F9FAFB"/>
<path opacity="0.996" fill-rule="evenodd" clip-rule="evenodd" d="M81.4092 40.1499C84.1678 40.1499 86.9264 40.1499 89.685 40.1499C89.685 40.8296 89.685 41.5093 89.685 42.1889C87.766 42.1889 85.847 42.1889 83.9279 42.1889C83.9279 42.9685 83.9279 43.7481 83.9279 44.5277C85.6269 44.5277 87.3264 44.5277 89.0254 44.5277C89.0254 45.1874 89.0254 45.8471 89.0254 46.5068C87.3264 46.5068 85.6269 46.5068 83.9279 46.5068C83.9279 47.3463 83.9279 48.1859 83.9279 49.0255C85.9267 49.0255 87.9261 49.0255 89.9249 49.0255C89.9249 49.7051 89.9249 50.3848 89.9249 51.0645C87.0865 51.0645 84.2476 51.0645 81.4092 51.0645C81.4092 47.4263 81.4092 43.7881 81.4092 40.1499Z" fill="#F9FAFB"/>
<path opacity="0.986" fill-rule="evenodd" clip-rule="evenodd" d="M103.238 40.1499C104.098 40.1499 104.958 40.1499 105.817 40.1499C105.817 41.5692 105.817 42.9885 105.817 44.4078C107.456 44.4078 109.096 44.4078 110.735 44.4078C110.735 42.9885 110.735 41.5692 110.735 40.1499C111.594 40.1499 112.454 40.1499 113.313 40.1499C113.313 43.7881 113.313 47.4263 113.313 51.0645C112.454 51.0645 111.594 51.0645 110.735 51.0645C110.735 49.5652 110.735 48.066 110.735 46.5667C109.096 46.5667 107.456 46.5667 105.817 46.5667C105.817 48.066 105.817 49.5652 105.817 51.0645C104.958 51.0645 104.098 51.0645 103.238 51.0645C103.238 47.4263 103.238 43.7881 103.238 40.1499Z" fill="#F9FAFB"/>
<path opacity="0.988" fill-rule="evenodd" clip-rule="evenodd" d="M115.832 40.1499C116.552 40.1399 117.271 40.1499 117.991 40.1799C119.803 42.3313 121.592 44.5003 123.358 46.6867C123.388 44.5078 123.398 42.3289 123.388 40.1499C124.228 40.1499 125.067 40.1499 125.907 40.1499C125.907 43.7881 125.907 47.4263 125.907 51.0645C125.187 51.0745 124.468 51.0645 123.748 51.0345C121.936 48.8831 120.147 46.7141 118.381 44.5277C118.351 46.7066 118.341 48.8855 118.351 51.0645C117.511 51.0645 116.672 51.0645 115.832 51.0645C115.832 47.4263 115.832 43.7881 115.832 40.1499Z" fill="#F9FAFB"/>
<path opacity="0.982" fill-rule="evenodd" clip-rule="evenodd" d="M141.619 40.1499C142.479 40.1499 143.338 40.1499 144.198 40.1499C144.198 43.0885 144.198 46.027 144.198 48.9655C146.037 48.9655 147.876 48.9655 149.715 48.9655C149.715 49.6652 149.715 50.3648 149.715 51.0645C147.016 51.0645 144.318 51.0645 141.619 51.0645C141.619 47.4263 141.619 43.7881 141.619 40.1499Z" fill="#F9FAFB"/>
<path opacity="0.977" fill-rule="evenodd" clip-rule="evenodd" d="M174.543 40.1499C175.463 40.1399 176.382 40.1499 177.302 40.1799C178.259 41.7442 179.208 43.3134 180.15 44.8876C181.114 43.3384 182.064 41.7791 182.999 40.2099C183.858 40.13 184.718 40.13 185.577 40.2099C184.168 42.5487 182.759 44.8876 181.35 47.2264C181.32 48.5056 181.309 49.785 181.32 51.0645C180.46 51.0645 179.6 51.0645 178.741 51.0645C178.751 49.745 178.741 48.4256 178.711 47.1065C177.305 44.7943 175.916 42.4754 174.543 40.1499Z" fill="#F9FAFB"/>
</g>
<defs>
<clipPath id="clip0_1_113">
<rect width="200" height="64.5877" fill="white"/>
</clipPath>
</defs>
</svg>
