<svg width="200" height="72" viewBox="0 0 200 72" fill="none" xmlns="http://www.w3.org/2000/svg">
<path fill-rule="evenodd" clip-rule="evenodd" d="M45.5161 58.5598C45.5406 57.8391 45.3596 57.2052 44.9726 56.6576C44.7759 55.278 44.5041 53.9193 44.1574 52.5815C44.2813 51.1967 44.0096 49.9288 43.3422 48.7772C42.6639 47.6913 42.2109 46.5139 41.9835 45.2446C42.4017 43.0302 42.7639 40.8109 43.0704 38.587C43.0878 36.5897 42.5895 34.7326 41.5759 33.0163C41.4403 31.9332 41.3949 30.8462 41.44 29.7554C41.3628 29.2351 41.4533 28.7823 41.7117 28.3967C42.2552 29.0685 42.8892 29.6571 43.6139 30.163C45.043 30.2285 45.677 29.5038 45.5161 27.9891C45.3389 26.2366 44.9767 24.5609 44.4291 22.962C45.3791 21.2838 46.6473 19.8345 48.2335 18.6141C48.852 19.5519 49.5313 20.4577 50.2715 21.3315C50.4528 20.8786 50.4528 20.4257 50.2715 19.9728C49.856 19.2178 49.4938 18.4932 49.1846 17.7989C49.9427 18.7842 50.8938 19.5088 52.0378 19.9728C52.1283 19.8823 52.2191 19.7917 52.3096 19.7011C51.8183 18.6393 51.0031 17.96 49.8639 17.663C50.8541 17.1679 51.8506 16.6697 52.8531 16.1685C51.3783 15.6788 50.1555 16.0411 49.1846 17.2554C48.8028 15.9432 48.0327 14.9468 46.8748 14.2663C46.7278 14.816 46.8637 15.3595 47.2824 15.8967C47.7805 16.3949 48.2789 16.8931 48.777 17.3913C48.5957 17.5725 48.4147 17.5725 48.2335 17.3913C47.4718 16.2854 46.4753 15.7872 45.2444 15.8967C45.9484 16.7027 46.7637 17.3821 47.69 17.9348C46.5419 18.9461 45.5454 20.0784 44.7009 21.3315C44.4767 21.5722 44.205 21.6628 43.8857 21.6033C43.7952 21.3315 43.6139 21.1504 43.3422 21.0598C42.58 20.8371 41.7647 20.7012 40.8965 20.6522C42.0789 20.0772 42.7128 19.2167 42.7987 18.0707C41.6134 18.6671 40.7531 19.573 40.2172 20.788C39.2941 19.543 38.0713 18.9996 36.5487 19.1576C35.7066 18.1412 34.6196 17.8242 33.2878 18.2065C32.8751 18.5737 32.5128 18.9813 32.2009 19.4294C29.1221 19.8476 28.0802 21.5686 29.0759 24.5924C29.6028 25.125 29.4669 25.4873 28.6683 25.6794C27.9052 25.28 27.09 25.0536 26.2226 25C25.44 24.0652 24.4437 23.567 23.2335 23.5054C23.003 21.7756 22.3237 20.2357 21.1954 18.8859C20.335 17.121 20.6973 15.6718 22.2824 14.538C22.5833 11.9341 21.7681 11.4811 19.8368 13.1793C19.7592 14.9785 19.4874 16.6995 19.0215 18.3424C20.0569 19.8119 20.7816 21.4423 21.1954 23.2337C22.361 25.667 24.2179 27.3427 26.7661 28.2609C27.0492 28.7821 27.3661 29.2802 27.7172 29.7554C27.765 31.2799 27.9914 32.7745 28.3965 34.2391C27.9251 34.7769 27.5628 35.3658 27.3096 36.0054C27.1309 36.2495 26.9497 36.5212 26.7661 36.8207C25.6063 35.6788 24.2476 35.3163 22.69 35.7337C23.6713 36.4505 24.7582 36.9486 25.9509 37.2283C24.7596 37.6845 23.8538 38.4544 23.2335 39.538C23.3241 39.6285 23.4147 39.7193 23.5052 39.8098C24.6709 39.1848 25.7579 38.4601 26.7661 37.6359C26.8852 37.6182 26.9758 37.6633 27.0378 37.7717C25.8998 38.6421 25.4016 39.7745 25.5433 41.1685C26.2554 40.3326 26.9347 39.4723 27.5813 38.587C28.0952 38.503 28.4577 38.7296 28.6683 39.2663C27.2821 41.3359 26.0594 43.5098 24.9998 45.7881C25.0554 48.0671 24.6025 50.241 23.6411 52.3098C23.5851 54.0446 23.4493 55.7655 23.2335 57.4728C20.2604 57.9117 17.2713 58.1834 14.2661 58.2881C13.9968 60.1394 13.9062 62.0416 13.9944 63.9946C13.3678 63.8606 12.7338 63.7701 12.0922 63.7228C10.4593 63.0408 9.32708 61.8633 8.69545 60.1902C8.51428 43.4329 8.51428 26.6757 8.69545 9.91848C9.48142 8.31737 10.7043 7.18514 12.3639 6.52174C25.8603 6.34057 39.3566 6.34057 52.8531 6.52174C54.9354 6.97405 56.3395 8.19688 57.065 10.1902C57.2463 26.6757 57.2463 43.1611 57.065 59.6467C55.7791 63.3035 53.1976 64.7527 49.3204 63.9946C49.3639 63.5329 49.3188 63.0799 49.1846 62.6359C47.9253 61.6489 46.7479 60.562 45.652 59.375C45.5207 59.1174 45.4756 58.8457 45.5161 58.5598Z" fill="#F9FAFB"/>
<path fill-rule="evenodd" clip-rule="evenodd" d="M178.397 23.2337C178.087 24.0869 178.041 24.9927 178.261 25.9511C178.365 26.1022 178.501 26.1927 178.668 26.2228C179.106 27.0484 179.65 27.8182 180.299 28.5326C183.193 30.1565 185.774 32.1946 188.043 34.6467C190.073 38.9818 189.213 42.6503 185.462 45.6522C182.484 46.8777 179.405 47.1495 176.223 46.4674C175.612 46.1851 175.023 45.8679 174.456 45.5163C174.231 44.3285 174.277 43.1508 174.592 41.9837C177.121 44.6527 180.11 45.3321 183.56 44.0217C185.193 42.891 185.918 41.3057 185.734 39.2663C185.887 38.031 185.57 36.944 184.782 36.0054C182.726 34.3209 180.598 32.7359 178.397 31.25C174.779 28.0359 174.19 24.3674 176.63 20.2446C178.393 18.3879 180.567 17.4821 183.152 17.5272C184.86 17.6312 186.536 17.9029 188.179 18.3424C188.541 19.4293 188.541 20.5163 188.179 21.6033C186.19 19.9897 183.926 19.401 181.386 19.837C179.644 20.3539 178.647 21.4862 178.397 23.2337Z" fill="#F9FAFB"/>
<path fill-rule="evenodd" clip-rule="evenodd" d="M64.8096 17.7989C66.2702 17.7097 67.7194 17.8003 69.1574 18.0707C71.6862 25.4778 74.5846 32.7242 77.853 39.8098C81.3221 32.7807 84.2658 25.5344 86.6846 18.0707C87.8938 17.7174 89.1166 17.7174 90.353 18.0707C89.3367 19.8308 88.3857 21.6424 87.4998 23.5055C84.1278 31.2451 80.6857 38.9443 77.1737 46.6033C73.58 38.3294 70.1378 29.9959 66.8476 21.6033C66.1914 20.3063 65.512 19.0382 64.8096 17.7989Z" fill="#F9FAFB"/>
<path fill-rule="evenodd" clip-rule="evenodd" d="M107.201 17.7989C109.53 17.6156 111.794 17.8874 113.995 18.6141C113.788 19.5954 113.652 20.5918 113.587 21.6033C112.849 20.7253 111.898 20.2271 110.734 20.1087C106.038 19.2779 104.271 21.1348 105.435 25.6793C106.971 27.3068 108.738 28.6204 110.734 29.6196C115.258 32.9247 115.711 36.7291 112.092 41.0326C108.68 43.0326 105.148 43.259 101.495 41.7119C101.179 40.5448 101.134 39.3671 101.359 38.1793C103.264 40.1505 105.574 40.9204 108.288 40.4891C110.852 39.484 111.803 37.6272 111.141 34.9185C110.853 34.0864 110.355 33.4071 109.647 32.8804C107.488 31.5519 105.45 30.0573 103.533 28.3967C100.462 23.3772 101.685 19.8446 107.201 17.7989Z" fill="#F9FAFB"/>
<path fill-rule="evenodd" clip-rule="evenodd" d="M44.4292 22.9619C44.1474 22.5733 43.9662 22.1204 43.8857 21.6033C44.205 21.6628 44.4768 21.5722 44.701 21.3315C45.5455 20.0784 46.542 18.9461 47.6901 17.9348C46.7637 17.3821 45.9485 16.7027 45.2444 15.8967C46.4754 15.7872 47.4719 16.2854 48.2336 17.3913C48.4148 17.5725 48.5958 17.5725 48.777 17.3913C48.2789 16.8931 47.7806 16.3949 47.2825 15.8967C46.8637 15.3595 46.7279 14.816 46.8749 14.2663C48.0328 14.9468 48.8029 15.9432 49.1847 17.2554C50.1556 16.0411 51.3784 15.6788 52.8531 16.1685C51.8507 16.6697 50.8542 17.1679 49.864 17.663C51.0031 17.96 51.8184 18.6393 52.3097 19.7011C52.2192 19.7917 52.1284 19.8822 52.0379 19.9728C50.8939 19.5088 49.9428 18.7842 49.1847 17.7989C49.4939 18.4932 49.8561 19.2178 50.2716 19.9728C50.4529 20.4257 50.4529 20.8786 50.2716 21.3315C49.5314 20.4577 48.852 19.5519 48.2336 18.6141C46.6474 19.8345 45.3792 21.2838 44.4292 22.9619Z" fill="#F9FAFB"/>
<path fill-rule="evenodd" clip-rule="evenodd" d="M137.908 41.712C136.693 41.9799 135.425 42.0704 134.103 41.9837C133.259 39.4441 132.262 36.9984 131.114 34.6468C129.722 34.2856 128.227 34.1046 126.63 34.1033C125.088 34.1036 123.593 34.194 122.147 34.375C121.553 36.0074 120.873 37.6378 120.109 39.2663C119.753 40.2364 119.526 41.2329 119.429 42.2555C118.342 42.2555 117.255 42.2555 116.168 42.2555C119.368 34.6987 122.493 27.0899 125.543 19.4294C125.808 18.9389 126.125 18.486 126.495 18.0707C127.283 18.8274 127.871 19.7332 128.261 20.7881C131.344 27.8587 134.56 34.8332 137.908 41.712Z" fill="#F9FAFB"/>
<path fill-rule="evenodd" clip-rule="evenodd" d="M172.962 41.7119C171.838 41.9796 170.661 42.0701 169.429 41.9837C168.475 39.4448 167.433 36.9087 166.304 34.375C163.287 34.0163 160.252 34.0163 157.201 34.375C156.185 36.9706 155.279 39.5975 154.484 42.2554C153.382 42.3435 152.295 42.253 151.223 41.9837C154.669 34.4581 157.885 26.8494 160.869 19.1576C161.134 18.6671 161.451 18.2142 161.82 17.7989C165.647 25.7586 169.36 33.7296 172.962 41.7119Z" fill="#F9FAFB"/>
<path fill-rule="evenodd" clip-rule="evenodd" d="M96.8749 22.4185C96.6037 28.8935 96.5132 35.4152 96.6032 41.9837C95.6067 41.9837 94.6105 41.9837 93.614 41.9837C93.614 40.2628 93.614 38.5416 93.614 36.8207C93.6869 30.656 93.5964 24.4966 93.3423 18.3424C94.5197 18.3424 95.6974 18.3424 96.8749 18.3424C96.8749 19.7011 96.8749 21.0598 96.8749 22.4185Z" fill="#F9FAFB"/>
<path fill-rule="evenodd" clip-rule="evenodd" d="M146.06 39.8098C146.06 40.5345 146.06 41.259 146.06 41.9837C144.973 41.9837 143.886 41.9837 142.799 41.9837C143.046 38.7258 143.091 35.465 142.935 32.2011C141.192 29.1669 139.38 26.1777 137.5 23.2337C136.485 21.4935 135.262 19.9083 133.832 18.4783C135.289 18.2529 136.739 18.2982 138.179 18.6142C140.262 22.4179 142.481 26.1316 144.837 29.7555C147.137 26.1413 149.266 22.4275 151.223 18.6142C152.31 18.2519 153.397 18.2519 154.484 18.6142C151.449 22.87 148.686 27.3085 146.196 31.9294C146.06 34.5547 146.015 37.1816 146.06 39.8098Z" fill="#F9FAFB"/>
<path fill-rule="evenodd" clip-rule="evenodd" d="M43.3423 21.0598C42.2553 21.0598 41.1684 21.0598 40.0814 21.0598C39.1081 20.8563 38.2021 20.494 37.364 19.9729C37.1991 20.0064 37.1086 20.097 37.0923 20.2446C36.8627 19.9262 36.6817 19.5639 36.5488 19.1576C38.0714 18.9996 39.2942 19.5431 40.2173 20.7881C40.7532 19.573 41.6135 18.6672 42.7988 18.0707C42.713 19.2167 42.079 20.0773 40.8967 20.6522C41.7649 20.7012 42.5801 20.8371 43.3423 21.0598Z" fill="#F9FAFB"/>
<path fill-rule="evenodd" clip-rule="evenodd" d="M40.0814 21.0598C40.117 21.2979 40.0265 21.4791 39.8097 21.6033C38.798 21.2438 37.8923 20.7909 37.0923 20.2446C37.1086 20.097 37.1991 20.0064 37.364 19.9728C38.2021 20.494 39.108 20.8563 40.0814 21.0598Z" fill="#F9FAFB"/>
<path fill-rule="evenodd" clip-rule="evenodd" d="M39.2664 22.4185C38.9042 22.0562 38.5417 22.0562 38.1795 22.4185C38.0319 22.4022 37.9414 22.3116 37.9077 22.1467C38.4512 21.7844 38.9947 21.7844 39.5381 22.1467C39.5045 22.3116 39.414 22.4022 39.2664 22.4185Z" fill="#F9FAFB"/>
<path fill-rule="evenodd" clip-rule="evenodd" d="M39.2662 22.4185C38.858 23.1038 38.4958 23.1038 38.1792 22.4185C38.5414 22.0562 38.9039 22.0562 39.2662 22.4185Z" fill="#F9FAFB"/>
<path fill-rule="evenodd" clip-rule="evenodd" d="M40.0813 22.1467C40.7169 22.692 41.3509 23.2355 41.9835 23.7772C41.893 23.8677 41.8023 23.9583 41.7118 24.0489C41.1061 23.7562 40.4718 23.5751 39.8096 23.5054C39.7732 23.0186 39.8637 22.5657 40.0813 22.1467Z" fill="#F9FAFB"/>
<path fill-rule="evenodd" clip-rule="evenodd" d="M126.223 23.2337C127.747 25.986 129.015 28.8845 130.027 31.9294C127.679 32.2006 125.324 32.291 122.962 32.2011C123.941 29.1723 125.028 26.1831 126.223 23.2337Z" fill="#030711"/>
<path fill-rule="evenodd" clip-rule="evenodd" d="M165.081 31.6576C162.957 31.9272 160.783 32.0179 158.56 31.9294C158.56 31.5671 158.56 31.2046 158.56 30.8424C159.407 28.2429 160.403 25.7068 161.549 23.2337C162.951 25.9484 164.129 28.7565 165.081 31.6576Z" fill="#030711"/>
<path fill-rule="evenodd" clip-rule="evenodd" d="M178.397 23.2337C178.349 24.2485 178.439 25.2448 178.669 26.2228C178.501 26.1928 178.365 26.1022 178.261 25.9511C178.041 24.9928 178.087 24.0869 178.397 23.2337Z" fill="#F9FAFB"/>
<path fill-rule="evenodd" clip-rule="evenodd" d="M41.7121 28.3967C41.4537 28.7823 41.3632 29.2351 41.4404 29.7554C41.1336 29.1772 41.0882 28.5432 41.3045 27.8533C41.4994 28.0011 41.6352 28.1823 41.7121 28.3967Z" fill="#F9FAFB"/>
<path fill-rule="evenodd" clip-rule="evenodd" d="M158.56 30.8424C158.56 31.2046 158.56 31.5671 158.56 31.9294C160.784 32.018 162.957 31.9272 165.081 31.6576C165.229 31.6739 165.319 31.7644 165.353 31.9294C162.907 32.2916 160.462 32.2916 158.016 31.9294C158.15 31.5147 158.332 31.1525 158.56 30.8424Z" fill="#F9FAFB"/>
<path fill-rule="evenodd" clip-rule="evenodd" d="M122.147 34.375C123.593 34.194 125.088 34.1035 126.631 34.1033C128.227 34.1046 129.722 34.2856 131.114 34.6467C128.147 34.3813 125.158 34.2908 122.147 34.375Z" fill="#F9FAFB"/>
<path fill-rule="evenodd" clip-rule="evenodd" d="M27.31 36.0054C27.2633 36.275 27.354 36.456 27.5817 36.5489C27.416 36.791 27.3255 37.0628 27.31 37.3641C26.9229 36.9481 26.7417 37.0386 26.7665 37.6359C25.7583 38.4601 24.6714 39.1848 23.5056 39.8098C23.4151 39.7193 23.3245 39.6285 23.2339 39.5381C23.8542 38.4544 24.76 37.6845 25.9513 37.2283C24.7586 36.9487 23.6717 36.4506 22.6904 35.7337C24.248 35.3163 25.6067 35.6788 26.7665 36.8207C26.9501 36.5212 27.1313 36.2495 27.31 36.0054Z" fill="#F9FAFB"/>
<path fill-rule="evenodd" clip-rule="evenodd" d="M27.3096 37.3641C27.3251 37.0628 27.4155 36.791 27.5813 36.5489C27.9386 36.2837 28.3009 36.012 28.6683 35.7337C28.7588 35.8242 28.8495 35.915 28.94 36.0054C28.5511 36.6679 28.0077 37.1207 27.3096 37.3641Z" fill="#F9FAFB"/>
<path fill-rule="evenodd" clip-rule="evenodd" d="M28.6685 37.3641C29.2024 37.4859 29.2929 37.7576 28.9402 38.1794C28.6685 38.0435 28.3967 37.9076 28.125 37.7717C28.3739 37.6962 28.5549 37.5603 28.6685 37.3641Z" fill="#F9FAFB"/>
<path fill-rule="evenodd" clip-rule="evenodd" d="M37.9078 41.1685C38.089 41.7119 38.27 42.2554 38.4512 42.7989C38.4374 44.7628 38.9358 46.5742 39.9458 48.2337C40.4461 50.7301 41.2159 53.1304 42.2556 55.4348C42.1651 55.5706 42.0743 55.7065 41.9839 55.8424C40.7249 55.5685 39.4567 55.5685 38.1795 55.8424C38.0874 54.2 37.9061 52.5695 37.636 50.9511C37.6018 48.9054 37.4205 46.9128 37.0926 44.9728C37.0474 43.882 37.0928 42.7951 37.2284 41.7119C37.4988 41.5581 37.7252 41.3769 37.9078 41.1685Z" fill="#F9FAFB"/>
<path fill-rule="evenodd" clip-rule="evenodd" d="M96.8752 22.4185C96.8752 29.0307 96.8752 35.6432 96.8752 42.2554C95.6978 42.2554 94.5201 42.2554 93.3426 42.2554C93.2546 40.3929 93.3451 38.5812 93.6144 36.8206C93.6144 38.5416 93.6144 40.2628 93.6144 41.9837C94.6108 41.9837 95.607 41.9837 96.6035 41.9837C96.5135 35.4152 96.604 28.8935 96.8752 22.4185Z" fill="#F9FAFB"/>
<path fill-rule="evenodd" clip-rule="evenodd" d="M137.907 41.712C138.055 41.7283 138.145 41.8188 138.179 41.9837C136.779 42.3408 135.42 42.3408 134.103 41.9837C135.424 42.0704 136.693 41.9799 137.907 41.712Z" fill="#F9FAFB"/>
<path fill-rule="evenodd" clip-rule="evenodd" d="M146.06 39.8098C146.325 40.5672 146.416 41.3824 146.331 42.2555C145.1 42.3419 143.922 42.2514 142.799 41.9837C143.886 41.9837 144.973 41.9837 146.06 41.9837C146.06 41.259 146.06 40.5345 146.06 39.8098Z" fill="#F9FAFB"/>
<path fill-rule="evenodd" clip-rule="evenodd" d="M172.962 41.712C173.109 41.7283 173.2 41.8188 173.234 41.9837C171.924 42.3402 170.656 42.3402 169.429 41.9837C170.661 42.0701 171.838 41.9796 172.962 41.712Z" fill="#F9FAFB"/>
<path fill-rule="evenodd" clip-rule="evenodd" d="M37.9077 41.1685C37.924 41.0209 38.0145 40.9304 38.1795 40.8967C38.4441 41.5062 38.5349 42.1402 38.4512 42.7989C38.2699 42.2554 38.089 41.7119 37.9077 41.1685Z" fill="#F9FAFB"/>
<path fill-rule="evenodd" clip-rule="evenodd" d="M30.8422 48.2337C30.42 49.3389 30.239 50.5163 30.2988 51.7663C30.1632 53.1228 30.0273 54.4815 29.8912 55.8424C28.7181 56.9581 27.314 57.5924 25.6792 57.7446C25.9718 56.0975 26.5606 54.5579 27.4455 53.125C27.536 51.4946 27.6268 49.8641 27.7172 48.2337C28.8947 46.7845 30.0724 45.335 31.2499 43.8859C31.189 45.3242 31.0531 46.7734 30.8422 48.2337Z" fill="#F9FAFB"/>
<path fill-rule="evenodd" clip-rule="evenodd" d="M87.9077 45.788C90.0118 45.6168 92.0045 45.7981 93.886 46.3315C92.9803 46.3315 92.0743 46.3315 91.1686 46.3315C91.1686 48.5959 91.1686 50.8606 91.1686 53.125C90.8968 53.125 90.6251 53.125 90.3534 53.125C90.3534 50.8606 90.3534 48.5959 90.3534 46.3315C89.399 46.4823 88.5838 46.3011 87.9077 45.788Z" fill="#F9FAFB"/>
<path fill-rule="evenodd" clip-rule="evenodd" d="M104.756 46.3315C103.85 46.3315 102.944 46.3315 102.038 46.3315C102.038 48.5959 102.038 50.8606 102.038 53.125C101.766 53.125 101.495 53.125 101.223 53.125C101.223 50.8606 101.223 48.5959 101.223 46.3315C100.388 46.4176 99.573 46.3272 98.7773 46.0598C99.7738 45.9693 100.77 45.8785 101.766 45.788C102.871 45.791 103.868 45.9723 104.756 46.3315Z" fill="#F9FAFB"/>
<path fill-rule="evenodd" clip-rule="evenodd" d="M109.103 45.788C108.427 46.3011 107.612 46.4823 106.658 46.3315C106.658 47.2372 106.658 48.1432 106.658 49.0489C107.473 49.0489 108.288 49.0489 109.103 49.0489C108.427 49.5619 107.612 49.7432 106.658 49.5924C106.658 50.5888 106.658 51.585 106.658 52.5815C107.581 52.4945 108.487 52.585 109.375 52.8532C108.211 53.1228 107.034 53.2136 105.842 53.125C105.842 50.6793 105.842 48.2337 105.842 45.788C106.929 45.788 108.016 45.788 109.103 45.788Z" fill="#F9FAFB"/>
<path fill-rule="evenodd" clip-rule="evenodd" d="M113.723 46.0598C113.678 47.7832 113.723 49.5041 113.859 51.2229C114.151 51.9237 114.649 52.3767 115.353 52.5816C115.748 52.7995 116.201 52.9354 116.712 52.9892C115.993 53.1242 115.268 53.1696 114.538 53.125C113.592 52.7547 113.139 52.0299 113.18 50.9511C113.011 49.2049 113.192 47.5745 113.723 46.0598Z" fill="#F9FAFB"/>
<path fill-rule="evenodd" clip-rule="evenodd" d="M127.038 45.788C127.127 48.2831 127.036 50.7288 126.766 53.125C125.035 51.3945 123.405 49.5829 121.875 47.6902C121.859 47.5426 121.768 47.4522 121.603 47.4185C121.247 48.7277 121.247 49.9959 121.603 51.2228C121.603 51.8568 121.603 52.491 121.603 53.125C121.332 53.125 121.06 53.125 120.788 53.125C120.788 52.4003 120.788 51.6758 120.788 50.9511C120.969 49.3206 121.15 47.6902 121.332 46.0598C123.044 47.8179 124.719 49.6296 126.359 51.4945C126.322 49.4823 126.548 47.5801 127.038 45.788Z" fill="#F9FAFB"/>
<path fill-rule="evenodd" clip-rule="evenodd" d="M129.484 45.788C129.756 45.788 130.027 45.788 130.299 45.788C130.299 48.2337 130.299 50.6793 130.299 53.125C130.027 53.125 129.756 53.125 129.484 53.125C129.484 50.6793 129.484 48.2337 129.484 45.788Z" fill="#F9FAFB"/>
<path fill-rule="evenodd" clip-rule="evenodd" d="M158.016 45.788C160.12 45.6168 162.113 45.7981 163.994 46.3315C163.089 46.3315 162.183 46.3315 161.277 46.3315C161.277 48.5959 161.277 50.8606 161.277 53.125C161.005 53.125 160.734 53.125 160.462 53.125C160.462 50.8606 160.462 48.5959 160.462 46.3315C159.507 46.4823 158.692 46.3011 158.016 45.788Z" fill="#F9FAFB"/>
<path fill-rule="evenodd" clip-rule="evenodd" d="M144.429 45.788C145.924 45.5921 147.237 45.9543 148.369 46.875C148.733 48.0994 148.416 49.0959 147.418 49.8641C148.182 50.9448 148.997 51.9864 149.864 52.9891C149.502 53.1704 149.139 53.1704 148.777 52.9891C148.052 52.0834 147.328 51.1774 146.603 50.2717C146.159 50.1375 145.706 50.0924 145.244 50.1359C145.063 51.0926 144.882 52.0888 144.701 53.125C144.43 50.6861 144.339 48.2405 144.429 45.788Z" fill="#F9FAFB"/>
<path fill-rule="evenodd" clip-rule="evenodd" d="M87.9075 45.788C88.5836 46.3011 89.3988 46.4823 90.3532 46.3315C90.3532 48.5959 90.3532 50.8606 90.3532 53.125C90.0836 51.0011 89.9929 48.8272 90.0815 46.6032C89.2662 46.6032 88.451 46.6032 87.6358 46.6032C87.5714 46.2524 87.6619 45.9807 87.9075 45.788Z" fill="#F9FAFB"/>
<path fill-rule="evenodd" clip-rule="evenodd" d="M93.8858 46.3315C93.1285 46.597 92.3133 46.6875 91.4402 46.6033C91.5288 48.8272 91.438 51.0011 91.1685 53.125C91.1685 50.8606 91.1685 48.5959 91.1685 46.3315C92.0742 46.3315 92.9801 46.3315 93.8858 46.3315Z" fill="#F9FAFB"/>
<path fill-rule="evenodd" clip-rule="evenodd" d="M104.755 46.3315C103.998 46.597 103.183 46.6875 102.31 46.6033C102.31 48.8677 102.31 51.1324 102.31 53.3968C101.875 53.4696 101.513 53.3788 101.223 53.125C101.494 53.125 101.766 53.125 102.038 53.125C102.038 50.8606 102.038 48.5959 102.038 46.3315C102.944 46.3315 103.85 46.3315 104.755 46.3315Z" fill="#F9FAFB"/>
<path fill-rule="evenodd" clip-rule="evenodd" d="M109.103 45.788C109.349 45.9807 109.44 46.2524 109.375 46.6032C108.56 46.6032 107.745 46.6032 106.929 46.6032C106.929 47.328 106.929 48.0524 106.929 48.7772C107.713 48.694 108.438 48.7845 109.103 49.0489C108.288 49.0489 107.473 49.0489 106.658 49.0489C106.658 48.1432 106.658 47.2372 106.658 46.3315C107.612 46.4823 108.427 46.3011 109.103 45.788Z" fill="#F9FAFB"/>
<path fill-rule="evenodd" clip-rule="evenodd" d="M142.527 45.788C142.773 45.9807 142.863 46.2524 142.799 46.6032C141.984 46.6032 141.168 46.6032 140.353 46.6032C140.353 47.328 140.353 48.0524 140.353 48.7772C141.137 48.694 141.862 48.7845 142.527 49.0489C141.712 49.0489 140.897 49.0489 140.082 49.0489C140.082 48.1432 140.082 47.2372 140.082 46.3315C141.036 46.4823 141.851 46.3011 142.527 45.788Z" fill="#F9FAFB"/>
<path fill-rule="evenodd" clip-rule="evenodd" d="M144.973 46.3315C147.645 46.2307 148.279 47.2723 146.875 49.4565C146.247 49.5916 145.613 49.6367 144.973 49.5924C144.973 48.5054 144.973 47.4185 144.973 46.3315Z" fill="#030711"/>
<path fill-rule="evenodd" clip-rule="evenodd" d="M158.016 45.788C158.693 46.3011 159.508 46.4823 160.462 46.3315C160.462 48.5959 160.462 50.8606 160.462 53.125C160.734 53.125 161.006 53.125 161.277 53.125C161.277 50.8606 161.277 48.5959 161.277 46.3315C162.183 46.3315 163.089 46.3315 163.995 46.3315C163.237 46.597 162.422 46.6875 161.549 46.6032C161.549 48.8676 161.549 51.1323 161.549 53.3967C161.096 53.3967 160.643 53.3967 160.19 53.3967C160.19 51.1323 160.19 48.8676 160.19 46.6032C159.375 46.6032 158.56 46.6032 157.745 46.6032C157.68 46.2524 157.771 45.9807 158.016 45.788Z" fill="#F9FAFB"/>
<path fill-rule="evenodd" clip-rule="evenodd" d="M37.0922 44.9728C37.4202 46.9128 37.6015 48.9054 37.6357 50.9511C37.1996 49.0209 37.0183 47.028 37.0922 44.9728Z" fill="#F9FAFB"/>
<path fill-rule="evenodd" clip-rule="evenodd" d="M121.331 46.0598C121.15 47.6902 120.969 49.3206 120.788 50.9511C120.698 49.2206 120.789 47.4994 121.06 45.788C121.225 45.8217 121.315 45.9122 121.331 46.0598Z" fill="#F9FAFB"/>
<path fill-rule="evenodd" clip-rule="evenodd" d="M142.527 45.788C141.851 46.3011 141.036 46.4823 140.081 46.3315C140.081 47.2372 140.081 48.1432 140.081 49.0489C140.897 49.0489 141.712 49.0489 142.527 49.0489C141.851 49.5619 141.036 49.7432 140.081 49.5924C140.081 50.5888 140.081 51.585 140.081 52.5815C141.005 52.4945 141.911 52.585 142.799 52.8532C141.635 53.1228 140.457 53.2136 139.266 53.125C139.266 50.6793 139.266 48.2337 139.266 45.788C140.353 45.788 141.44 45.788 142.527 45.788Z" fill="#F9FAFB"/>
<path fill-rule="evenodd" clip-rule="evenodd" d="M96.0599 45.788C96.5045 46.1274 96.8216 46.5804 97.011 47.1467C97.8618 49.1179 98.6317 51.1106 99.3208 53.125C98.9586 53.125 98.5961 53.125 98.2338 53.125C98.1325 52.2897 97.9515 51.4744 97.6904 50.6793C96.6939 50.6793 95.6977 50.6793 94.7012 50.6793C94.3154 51.4296 94.1341 52.2448 94.1578 53.125C93.7561 53.1962 93.3939 53.1057 93.0708 52.8532C94.0667 50.5027 95.0632 48.1478 96.0599 45.788Z" fill="#F9FAFB"/>
<path fill-rule="evenodd" clip-rule="evenodd" d="M95.7879 47.4185C96.6602 48.0755 97.1129 48.9815 97.1466 50.1358C96.4001 50.2209 95.6754 50.1304 94.9727 49.8641C95.4811 49.1212 95.7528 48.306 95.7879 47.4185Z" fill="#030711"/>
<path fill-rule="evenodd" clip-rule="evenodd" d="M118.071 46.0598C118.263 45.8141 118.535 45.7236 118.886 45.788C118.974 47.6505 118.884 49.4622 118.614 51.2228C118.784 49.3872 118.602 47.6663 118.071 46.0598Z" fill="#F9FAFB"/>
<path fill-rule="evenodd" clip-rule="evenodd" d="M156.658 45.788C156.658 48.2337 156.658 50.6793 156.658 53.125C156.386 53.125 156.114 53.125 155.842 53.125C155.842 50.6793 155.842 48.2337 155.842 45.788C156.114 45.788 156.386 45.788 156.658 45.788Z" fill="#F9FAFB"/>
<path fill-rule="evenodd" clip-rule="evenodd" d="M156.658 45.788C156.928 48.275 157.018 50.8111 156.929 53.3967C156.495 53.4695 156.133 53.3788 155.842 53.125C156.114 53.125 156.386 53.125 156.658 53.125C156.658 50.6793 156.658 48.2337 156.658 45.788Z" fill="#F9FAFB"/>
<path fill-rule="evenodd" clip-rule="evenodd" d="M113.723 46.0598C113.192 47.5744 113.011 49.2049 113.179 50.9511C112.91 49.2812 112.82 47.5603 112.907 45.788C113.258 45.7236 113.53 45.8141 113.723 46.0598Z" fill="#F9FAFB"/>
<path fill-rule="evenodd" clip-rule="evenodd" d="M127.038 45.788C127.397 48.2812 127.397 50.8174 127.038 53.3967C126.873 53.363 126.782 53.2725 126.766 53.125C127.036 50.7288 127.127 48.2831 127.038 45.788Z" fill="#F9FAFB"/>
<path fill-rule="evenodd" clip-rule="evenodd" d="M121.875 47.6902C121.607 48.8136 121.517 49.9913 121.603 51.2228C121.247 49.9959 121.247 48.7277 121.603 47.4185C121.768 47.4522 121.859 47.5426 121.875 47.6902Z" fill="#F9FAFB"/>
<path fill-rule="evenodd" clip-rule="evenodd" d="M151.766 45.788C152.581 45.788 153.397 45.788 154.212 45.788C154.271 46.1073 154.181 46.3791 153.94 46.6032C153.094 46.1788 152.324 46.2693 151.63 46.875C151.449 47.2372 151.449 47.5997 151.63 47.9619C152.587 48.7136 153.493 49.5288 154.348 50.4076C154.412 53.097 153.144 54.0027 150.543 53.125C150.331 52.7326 150.376 52.3704 150.679 52.038C151.956 53.25 152.952 53.0687 153.668 51.4945C153.619 51.2081 153.529 50.9364 153.397 50.6793C152.48 49.8986 151.62 49.0834 150.815 48.2337C150.634 47.7807 150.634 47.328 150.815 46.875C151.189 46.5475 151.506 46.1853 151.766 45.788Z" fill="#F9FAFB"/>
<path fill-rule="evenodd" clip-rule="evenodd" d="M164.538 46.0598C164.914 45.7062 165.322 45.7062 165.761 46.0598C166.395 47.1467 167.029 48.2337 167.663 49.3206C168.434 48.3228 169.068 47.2359 169.565 46.0598C169.85 45.7834 170.167 45.738 170.516 45.9239C168.653 47.9736 167.838 50.3742 168.071 53.125C167.799 53.125 167.527 53.125 167.255 53.125C167.415 50.3638 166.509 48.0087 164.538 46.0598Z" fill="#F9FAFB"/>
<path fill-rule="evenodd" clip-rule="evenodd" d="M84.3752 45.788C85.2809 45.788 86.1869 45.788 87.0926 45.788C87.1521 46.1073 87.0616 46.3791 86.8208 46.6032C85.9621 46.1532 85.192 46.2437 84.5111 46.875C84.3298 47.2372 84.3298 47.5997 84.5111 47.9619C85.2385 48.7796 86.0537 49.5043 86.9567 50.1359C87.3181 52.7628 86.1861 53.8046 83.56 53.2609C83.2255 52.9394 83.2255 52.6225 83.56 52.3098C84.4105 53.0198 85.2708 53.0198 86.1415 52.3098C86.3227 51.7663 86.3227 51.2228 86.1415 50.6793C85.3263 49.9546 84.5111 49.2301 83.6958 48.5054C83.3863 47.4399 83.613 46.5342 84.3752 45.788Z" fill="#F9FAFB"/>
<path fill-rule="evenodd" clip-rule="evenodd" d="M43.3423 48.7772C44.0097 49.9288 44.2814 51.1967 44.1575 52.5815C43.8882 51.3451 43.6165 50.0769 43.3423 48.7772Z" fill="#F9FAFB"/>
<path fill-rule="evenodd" clip-rule="evenodd" d="M131.386 46.0598C131.714 45.7114 132.077 45.7114 132.473 46.0598C133.318 47.8399 134.087 49.6516 134.782 51.4945C135.685 49.7386 136.455 47.9269 137.092 46.0598C137.364 45.6975 137.636 45.6975 137.907 46.0598C136.872 48.4405 135.785 50.7956 134.647 53.125C133.551 50.7535 132.464 48.3986 131.386 46.0598Z" fill="#F9FAFB"/>
<path fill-rule="evenodd" clip-rule="evenodd" d="M30.8422 48.2337C30.902 49.4837 30.721 50.6611 30.2987 51.7663C30.2389 50.5163 30.4199 49.3389 30.8422 48.2337Z" fill="#F9FAFB"/>
<path fill-rule="evenodd" clip-rule="evenodd" d="M144.429 45.788C144.339 48.2405 144.43 50.6861 144.701 53.125C144.882 52.0888 145.064 51.0926 145.244 50.1359C145.244 51.2228 145.244 52.3098 145.244 53.3967C144.882 53.3967 144.52 53.3967 144.158 53.3967C144.069 50.8111 144.159 48.275 144.429 45.788Z" fill="#F9FAFB"/>
<path fill-rule="evenodd" clip-rule="evenodd" d="M33.8314 50.1359C34.1455 52.2117 34.5982 54.2951 35.1901 56.3859C34.1162 56.656 33.0292 56.837 31.9292 56.9293C32.4368 54.6272 33.0708 52.3628 33.8314 50.1359Z" fill="#F9FAFB"/>
<path fill-rule="evenodd" clip-rule="evenodd" d="M118.071 46.0598C118.602 47.6663 118.783 49.3873 118.614 51.2229C117.898 53.2571 116.539 53.8911 114.538 53.125C115.268 53.1696 115.993 53.1242 116.712 52.9892C116.201 52.9354 115.748 52.7995 115.353 52.5816C116.308 52.7511 117.078 52.4794 117.663 51.7663C118.039 49.8883 118.175 47.9862 118.071 46.0598Z" fill="#F9FAFB"/>
<path fill-rule="evenodd" clip-rule="evenodd" d="M44.9729 56.6576C45.3598 57.2051 45.5408 57.8391 45.5164 58.5598C45.1294 58.0122 44.9484 57.3782 44.9729 56.6576Z" fill="#F9FAFB"/>
<path fill-rule="evenodd" clip-rule="evenodd" d="M14.2662 58.288C14.2662 60.2807 14.2662 62.2736 14.2662 64.2663C13.4523 64.3223 12.7277 64.1413 12.0923 63.7228C12.7339 63.7701 13.3679 63.8606 13.9945 63.9945C13.9063 62.0416 13.9969 60.1394 14.2662 58.288Z" fill="#F9FAFB"/>
</svg>
