<svg width="200" height="47" viewBox="0 0 200 47" fill="none" xmlns="http://www.w3.org/2000/svg">
<g clip-path="url(#clip0_1_2)">
<path opacity="0.996" fill-rule="evenodd" clip-rule="evenodd" d="M21.66 -0.0289307C22.6433 -0.0289307 23.6265 -0.0289307 24.6097 -0.0289307C32.5725 0.706865 38.6936 4.42771 42.9729 11.1336C46.3483 16.9877 47.1387 23.1762 45.3442 29.6992C43.1955 36.4948 38.8867 41.382 32.4177 44.3609C29.7134 45.5191 26.8987 46.1649 23.9735 46.2984C23.4144 46.2984 22.8553 46.2984 22.2962 46.2984C14.7832 45.8441 8.77784 42.6245 4.28004 36.6397C1.73692 33.0302 0.300634 29.0202 -0.0288086 24.6096C-0.0288086 23.6071 -0.0288086 22.6046 -0.0288086 21.6021C0.645263 14.2268 3.96125 8.37558 9.91914 4.04857C13.4658 1.6357 17.3794 0.276537 21.66 -0.0289307Z" fill="#030711"/>
<path opacity="0.932" fill-rule="evenodd" clip-rule="evenodd" d="M51.1567 5.69695C52.4113 5.67678 53.6644 5.7057 54.9161 5.7837C56.4312 6.04617 57.4241 6.90412 57.8947 8.35744C58.2279 9.7601 57.9098 10.9843 56.9404 12.0301C56.3564 12.5273 55.6816 12.8357 54.9161 12.9555C53.6644 13.0335 52.4113 13.0624 51.1567 13.0422C51.1567 10.5938 51.1567 8.14536 51.1567 5.69695ZM51.9665 6.44883C52.8342 6.43917 53.7018 6.44883 54.5691 6.47774C56.6262 6.90001 57.4648 8.14351 57.085 10.2082C56.67 11.4047 55.8314 12.0891 54.5691 12.2614C53.7018 12.2904 52.8342 12.3 51.9665 12.2904C51.9665 10.3432 51.9665 8.39602 51.9665 6.44883Z" fill="#030711"/>
<path opacity="0.926" fill-rule="evenodd" clip-rule="evenodd" d="M59.6587 5.69693C61.3169 5.69693 62.9745 5.69693 64.6327 5.69693C64.6327 5.94754 64.6327 6.1982 64.6327 6.44881C63.2446 6.44881 61.8565 6.44881 60.4684 6.44881C60.4684 7.2971 60.4684 8.14534 60.4684 8.99363C61.7021 8.99363 62.9363 8.99363 64.17 8.99363C64.17 9.22498 64.17 9.45633 64.17 9.68768C62.9363 9.68768 61.7021 9.68768 60.4684 9.68768C60.4684 10.5552 60.4684 11.4228 60.4684 12.2903C61.9143 12.2903 63.3603 12.2903 64.8062 12.2903C64.8062 12.5409 64.8062 12.7916 64.8062 13.0422C63.0902 13.0422 61.3747 13.0422 59.6587 13.0422C59.6587 10.5938 59.6587 8.14534 59.6587 5.69693Z" fill="#030711"/>
<path opacity="0.94" fill-rule="evenodd" clip-rule="evenodd" d="M66.5415 5.69694C67.4669 5.68731 68.3923 5.69695 69.3177 5.72586C70.2159 5.69734 70.9967 5.97687 71.6601 6.56449C72.1829 7.22904 72.3564 7.98092 72.1806 8.82013C71.8318 9.97415 71.051 10.6007 69.8382 10.6998C69.0094 10.7288 68.1806 10.7384 67.3512 10.7288C67.3512 11.4806 67.3512 12.2325 67.3512 12.9844C67.0811 12.9844 66.8116 12.9844 66.5415 12.9844C66.5415 10.5552 66.5415 8.12609 66.5415 5.69694ZM67.3512 6.44882C68.1419 6.43916 68.9325 6.44882 69.7225 6.47774C71.0834 6.72141 71.6138 7.52146 71.313 8.87797C70.9001 9.67768 70.235 10.0536 69.3177 10.0058C68.6624 10.0347 68.0071 10.0444 67.3512 10.0347C67.3512 8.83939 67.3512 7.64414 67.3512 6.44882Z" fill="#030711"/>
<path opacity="0.937" fill-rule="evenodd" clip-rule="evenodd" d="M80.8848 5.69694C81.8102 5.68731 82.7355 5.69695 83.6609 5.72586C84.5591 5.69734 85.3399 5.97687 86.0033 6.56449C86.5262 7.22829 86.6997 7.98017 86.5239 8.82013C86.3116 9.65917 85.8009 10.2375 84.9912 10.5552C85.5643 11.3355 86.1236 12.126 86.6685 12.9266C86.3602 13.0037 86.0513 13.0037 85.7431 12.9266C85.2034 12.1655 84.654 11.4136 84.0947 10.6709C83.2966 10.7272 82.4967 10.7465 81.6945 10.7288C81.6945 11.4806 81.6945 12.2325 81.6945 12.9844C81.4244 12.9844 81.1549 12.9844 80.8848 12.9844C80.8848 10.5552 80.8848 8.12609 80.8848 5.69694ZM81.6945 6.44882C82.4851 6.43916 83.2757 6.44882 84.0658 6.47774C85.4267 6.72141 85.9571 7.52146 85.6563 8.87797C85.2416 9.67866 84.5765 10.0546 83.6609 10.0058C83.0056 10.0347 82.3504 10.0444 81.6945 10.0347C81.6945 8.83939 81.6945 7.64414 81.6945 6.44882Z" fill="#030711"/>
<path opacity="0.926" fill-rule="evenodd" clip-rule="evenodd" d="M87.0732 5.69693C89.0397 5.69693 91.0062 5.69693 92.9726 5.69693C92.9726 5.94754 92.9726 6.1982 92.9726 6.44881C92.1241 6.44881 91.2762 6.44881 90.4278 6.44881C90.4278 8.62735 90.4278 10.8058 90.4278 12.9844C90.1577 12.9844 89.8882 12.9844 89.6181 12.9844C89.6181 10.8058 89.6181 8.62735 89.6181 6.44881C88.7696 6.44881 87.9217 6.44881 87.0732 6.44881C87.0732 6.1982 87.0732 5.94754 87.0732 5.69693Z" fill="#030711"/>
<path opacity="0.926" fill-rule="evenodd" clip-rule="evenodd" d="M104.02 5.69693C105.678 5.69693 107.335 5.69693 108.994 5.69693C108.994 5.94754 108.994 6.1982 108.994 6.44881C107.605 6.44881 106.217 6.44881 104.829 6.44881C104.829 7.2971 104.829 8.14534 104.829 8.99363C106.063 8.99363 107.297 8.99363 108.531 8.99363C108.531 9.22498 108.531 9.45633 108.531 9.68768C107.297 9.68768 106.063 9.68768 104.829 9.68768C104.829 10.5552 104.829 11.4228 104.829 12.2903C106.275 12.2903 107.721 12.2903 109.167 12.2903C109.167 12.5409 109.167 12.7916 109.167 13.0422C107.451 13.0422 105.736 13.0422 104.02 13.0422C104.02 10.5938 104.02 8.14534 104.02 5.69693Z" fill="#030711"/>
<path opacity="0.926" fill-rule="evenodd" clip-rule="evenodd" d="M118.132 5.69693C120.098 5.69693 122.065 5.69693 124.031 5.69693C124.031 5.94754 124.031 6.1982 124.031 6.44881C123.183 6.44881 122.335 6.44881 121.486 6.44881C121.486 8.62735 121.486 10.8058 121.486 12.9844C121.216 12.9844 120.947 12.9844 120.677 12.9844C120.677 10.8058 120.677 8.62735 120.677 6.44881C119.828 6.44881 118.98 6.44881 118.132 6.44881C118.132 6.1982 118.132 5.94754 118.132 5.69693Z" fill="#030711"/>
<path opacity="0.932" fill-rule="evenodd" clip-rule="evenodd" d="M130.335 5.69692C132.02 5.46406 133.36 6.02312 134.355 7.3742C135.158 8.90184 135.062 10.367 134.066 11.7698C133.046 12.8297 131.802 13.2442 130.335 13.0133C128.679 12.7066 127.667 11.7331 127.299 10.0925C127.027 8.17732 127.75 6.79883 129.468 5.95719C129.762 5.86002 130.051 5.77327 130.335 5.69692ZM130.798 6.39097C132.768 6.42365 133.867 7.41653 134.095 9.36957C133.908 11.1853 132.906 12.1782 131.087 12.3482C129.236 12.2034 128.214 11.2105 128.022 9.36957C128.183 7.65684 129.108 6.66402 130.798 6.39097Z" fill="#030711"/>
<path opacity="0.939" fill-rule="evenodd" clip-rule="evenodd" d="M136.524 5.69693C138.182 5.69693 139.84 5.69693 141.498 5.69693C141.498 5.94754 141.498 6.1982 141.498 6.44881C140.11 6.44881 138.722 6.44881 137.334 6.44881C137.334 7.3742 137.334 8.29959 137.334 9.22498C138.567 9.22498 139.802 9.22498 141.035 9.22498C141.035 9.45633 141.035 9.68768 141.035 9.91902C139.802 9.91902 138.567 9.91902 137.334 9.91902C137.334 10.9408 137.334 11.9626 137.334 12.9844C137.064 12.9844 136.794 12.9844 136.524 12.9844C136.524 10.5552 136.524 8.12608 136.524 5.69693Z" fill="#030711"/>
<path opacity="0.939" fill-rule="evenodd" clip-rule="evenodd" d="M75.5641 5.75478C75.8556 5.73584 76.1447 5.75512 76.4316 5.81262C77.5438 8.19133 78.6236 10.582 79.6705 12.9844C79.379 13.0033 79.0898 12.984 78.8029 12.9266C78.5328 12.3289 78.2633 11.7312 77.9932 11.1336C76.663 11.0565 75.3327 11.0565 74.0025 11.1336C73.7168 11.7244 73.4467 12.322 73.1927 12.9266C72.9059 12.984 72.6167 13.0033 72.3252 12.9844C73.3888 10.5683 74.4681 8.15843 75.5641 5.75478ZM75.9689 6.68017C76.5571 7.89504 77.1158 9.12893 77.6462 10.3817C76.5288 10.4492 75.4102 10.4588 74.2916 10.4107C74.8746 9.17682 75.4339 7.93332 75.9689 6.68017Z" fill="#030711"/>
<path opacity="0.954" fill-rule="evenodd" clip-rule="evenodd" d="M94.1294 5.75476C94.3764 5.73758 94.617 5.75686 94.8524 5.8126C95.8743 7.5477 96.8957 9.28281 97.9177 11.0179C98.92 9.28281 99.9229 7.5477 100.925 5.8126C101.161 5.75686 101.401 5.73758 101.648 5.75476C101.648 8.16465 101.648 10.5745 101.648 12.9844C101.398 12.9844 101.147 12.9844 100.896 12.9844C100.906 11.1142 100.896 9.24417 100.867 7.37419C99.9518 8.93579 99.0357 10.4974 98.1201 12.059C97.9657 12.1361 97.8119 12.1361 97.6574 12.059C96.7419 10.4974 95.8258 8.93579 94.9102 7.37419C94.8813 9.24417 94.8714 11.1142 94.8813 12.9844C94.6308 12.9844 94.3798 12.9844 94.1294 12.9844C94.1294 10.5745 94.1294 8.16465 94.1294 5.75476Z" fill="#030711"/>
<path opacity="0.959" fill-rule="evenodd" clip-rule="evenodd" d="M110.902 5.75477C111.134 5.74519 111.366 5.75484 111.596 5.78369C113.129 7.70196 114.662 9.62018 116.194 11.5385C116.223 9.61064 116.233 7.68276 116.223 5.75477C116.474 5.75477 116.725 5.75477 116.975 5.75477C116.975 8.16466 116.975 10.5745 116.975 12.9844C116.743 12.994 116.512 12.9843 116.281 12.9555C114.768 11.0565 113.255 9.15749 111.741 7.25853C111.712 9.16703 111.702 11.0756 111.712 12.9844C111.442 12.9844 111.172 12.9844 110.902 12.9844C110.902 10.5745 110.902 8.16466 110.902 5.75477Z" fill="#030711"/>
<path fill-rule="evenodd" clip-rule="evenodd" d="M12.4638 9.8612C19.6356 9.85154 26.8073 9.8612 33.9791 9.89012C36.1219 10.3172 37.3268 11.6186 37.5939 13.7941C37.6325 18.2861 37.6325 22.7781 37.5939 27.2701C37.4073 29.0561 36.4915 30.2995 34.8467 31.0006C34.5036 31.096 34.1566 31.1731 33.8056 31.2319C26.7109 31.2705 19.6163 31.2705 12.5216 31.2319C10.3951 30.8791 9.15164 29.6356 8.79114 27.5015C8.75256 22.8745 8.75256 18.2475 8.79114 13.6206C9.15609 11.5111 10.3803 10.2579 12.4638 9.8612Z" fill="white"/>
<path fill-rule="evenodd" clip-rule="evenodd" d="M12.4061 11.9433C19.5586 11.9337 26.7111 11.9433 33.8636 11.9722C34.8298 12.2059 35.3985 12.8132 35.5697 13.7941C35.6083 18.2668 35.6083 22.7396 35.5697 27.2123C35.3717 28.3743 34.6873 29.0201 33.5165 29.1498C26.5375 29.1884 19.5586 29.1884 12.5796 29.1498C11.6554 28.9582 11.0674 28.4087 10.8156 27.5014C10.777 22.8745 10.777 18.2475 10.8156 13.6206C11.0612 12.787 11.5914 12.2279 12.4061 11.9433Z" fill="#030711"/>
<path fill-rule="evenodd" clip-rule="evenodd" d="M23.1636 12.6374C24.5672 12.4946 25.4637 13.0922 25.8531 14.4303C25.8916 14.6424 25.8916 14.8544 25.8531 15.0665C25.7711 15.3747 25.6651 15.6736 25.535 15.963C25.5521 16.0722 25.581 16.1782 25.6217 16.2811C26.4218 17.0811 27.2219 17.8813 28.0219 18.6813C28.1376 18.7199 28.2533 18.7199 28.369 18.6813C29.3536 18.1669 30.2501 18.2922 31.0584 19.0573C31.6524 19.8145 31.7681 20.6435 31.4054 21.5442C30.8063 22.4942 29.9484 22.8701 28.8317 22.6721C28.6071 22.54 28.3758 22.4435 28.1376 22.3829C27.3797 23.2566 26.5797 24.0952 25.7374 24.8988C25.682 24.997 25.6531 25.1031 25.6506 25.2169C26.0932 26.3384 25.8619 27.3024 24.9566 28.1087C23.8102 28.746 22.7981 28.5821 21.9202 27.6171C21.774 27.4019 21.6583 27.1706 21.5731 26.9231C21.568 26.5697 21.5295 26.2227 21.4575 25.882C20.941 25.5803 20.4108 25.3008 19.8669 25.0434C19.7898 25.0048 19.7127 25.0048 19.6356 25.0434C18.7721 25.9735 17.7889 26.1278 16.6859 25.5061C15.3872 24.2993 15.3872 23.104 16.6859 21.9202C17.1475 21.559 17.668 21.4241 18.2475 21.5153C18.4366 21.5917 18.6294 21.6302 18.8259 21.631C19.1454 21.2639 19.3767 20.8494 19.5199 20.3875C19.3634 19.9225 19.1321 19.4984 18.8259 19.1151C18.366 19.0686 17.9033 19.0397 17.4378 19.0283C16.194 18.5952 15.6446 17.718 15.7894 16.3968C16.2602 15.0963 17.1759 14.5661 18.5367 14.8062C19.0886 15.0015 19.532 15.3389 19.8669 15.8184C20.3075 15.649 20.7509 15.4851 21.1972 15.3268C21.3005 15.2814 21.3872 15.2139 21.4575 15.1243C21.4547 13.894 22.0235 13.065 23.1636 12.6374Z" fill="white"/>
<path fill-rule="evenodd" clip-rule="evenodd" d="M23.2217 13.3314C24.5488 13.2031 25.1946 13.8008 25.1592 15.1243C24.8595 15.9925 24.2522 16.3685 23.3374 16.2522C22.2076 15.7548 21.928 14.9546 22.4987 13.8519C22.7099 13.6269 22.9509 13.4534 23.2217 13.3314Z" fill="#030711"/>
<path fill-rule="evenodd" clip-rule="evenodd" d="M17.6112 15.4135C18.8828 15.3838 19.4708 16.0007 19.3752 17.2643C18.9359 18.308 18.1936 18.6068 17.1485 18.1608C16.4219 17.6173 16.258 16.933 16.6568 16.1076C16.9017 15.7689 17.2198 15.5376 17.6112 15.4135Z" fill="#030711"/>
<path fill-rule="evenodd" clip-rule="evenodd" d="M21.66 15.8762C21.7682 15.897 21.855 15.9548 21.9203 16.0497C22.0079 16.1756 22.0947 16.301 22.1805 16.4257C21.8749 16.9695 21.5472 17.4996 21.1973 18.0162C21.1473 18.0788 21.0894 18.0884 21.0238 18.0451C20.7539 17.9102 20.484 17.7752 20.2141 17.6402C20.1779 17.5969 20.149 17.5486 20.1273 17.4957C20.0818 17.1648 20.0914 16.8371 20.1562 16.5124C20.6604 16.2987 21.1616 16.0866 21.66 15.8762Z" fill="#030711"/>
<path opacity="0.972" fill-rule="evenodd" clip-rule="evenodd" d="M141.498 16.6281C142.711 16.6104 143.849 16.89 144.91 17.4667C144.967 17.5909 144.957 17.7163 144.881 17.8427C144.701 18.3258 144.49 18.7885 144.245 19.2308C143.207 18.6377 142.099 18.416 140.919 18.5656C140.537 18.6094 140.218 18.7733 139.965 19.0573C139.722 19.4925 139.789 19.8684 140.168 20.1851C140.322 20.2622 140.476 20.3393 140.63 20.4164C141.578 20.658 142.522 20.9087 143.464 21.1683C145.192 21.8183 145.76 23.0233 145.17 24.7831C144.727 25.6272 144.043 26.1766 143.117 26.4315C141.228 26.88 139.416 26.668 137.681 25.7953C137.548 25.7206 137.432 25.6242 137.333 25.5061C137.58 24.9259 137.85 24.3572 138.143 23.7999C139.468 24.7142 140.914 24.9938 142.481 24.6385C143.233 24.2348 143.31 23.7335 142.712 23.1348C142.543 23.0464 142.37 22.9693 142.192 22.9034C141.257 22.6889 140.331 22.4382 139.416 22.1515C137.789 21.5106 137.22 20.3443 137.709 18.6524C138.13 17.7301 138.834 17.1421 139.82 16.8884C140.379 16.742 140.938 16.6552 141.498 16.6281Z" fill="#030711"/>
<path fill-rule="evenodd" clip-rule="evenodd" d="M24.783 16.6859C24.8624 16.6769 24.9395 16.6865 25.0143 16.7149C25.8722 17.5728 26.7302 18.4307 27.588 19.2886C27.5587 19.4923 27.4719 19.6754 27.3278 19.8381C26.9002 19.8482 26.4761 19.8097 26.0554 19.7224C25.8846 19.514 25.7785 19.273 25.7373 18.9994C25.1359 17.8359 24.2009 17.4021 22.9322 17.6981C22.5606 17.925 22.2136 18.1853 21.8911 18.4789C21.9869 17.9247 22.2568 17.4523 22.7008 17.0619C22.8291 16.9881 22.964 16.9303 23.1057 16.8884C23.5107 16.8849 23.9156 16.8849 24.3203 16.8884C24.4924 16.8476 24.6466 16.7802 24.783 16.6859Z" fill="#030711"/>
<path opacity="0.973" fill-rule="evenodd" clip-rule="evenodd" d="M54.9159 16.6859C56.603 16.4713 58.1068 16.8858 59.4272 17.9294C59.5758 18.049 59.6915 18.1936 59.7742 18.3632C59.3277 18.8653 58.8459 19.328 58.3283 19.7513C57.4222 18.7341 56.3041 18.3967 54.9738 18.7391C53.6087 19.228 52.8954 20.2016 52.8338 21.6599C53.0982 23.8941 54.3514 24.887 56.5932 24.6385C56.9401 24.5518 57.2679 24.4169 57.5764 24.2336C57.8356 24.0227 58.0865 23.801 58.3283 23.5685C58.8095 23.9819 59.2814 24.4061 59.7453 24.8409C59.784 24.8988 59.784 24.9566 59.7453 25.0144C58.9188 25.9339 57.887 26.4641 56.651 26.605C54.7894 26.8583 53.1795 26.3474 51.8216 25.0723C50.6064 23.6048 50.2593 21.9468 50.7806 20.0983C51.2337 18.6437 52.1687 17.6315 53.5857 17.0619C54.0289 16.9079 54.4722 16.7826 54.9159 16.6859Z" fill="#030711"/>
<path opacity="0.976" fill-rule="evenodd" clip-rule="evenodd" d="M64.8641 16.686C66.8953 16.4353 68.6015 17.0522 69.9826 18.5367C71.0682 20.0901 71.2996 21.7673 70.6767 23.5685C69.8791 25.3293 68.5199 26.3414 66.5992 26.605C64.5974 26.8886 62.9103 26.3006 61.5384 24.841C60.3967 23.2833 60.1463 21.5868 60.7866 19.7513C61.5934 17.9899 62.9525 16.9681 64.8641 16.686ZM65.4424 18.5946C67.4534 18.6391 68.5523 19.6609 68.7391 21.6599C68.5934 23.5216 67.5905 24.5434 65.7316 24.7253C63.8727 24.5434 62.8698 23.5216 62.7241 21.6599C62.8386 19.9262 63.7449 18.9044 65.4424 18.5946Z" fill="#030711"/>
<path opacity="0.973" fill-rule="evenodd" clip-rule="evenodd" d="M150.578 16.6859C152.266 16.4713 153.769 16.8858 155.09 17.9294C155.238 18.049 155.354 18.1936 155.437 18.3632C154.99 18.8653 154.508 19.328 153.991 19.7513C153.085 18.7341 151.967 18.3967 150.636 18.7391C149.271 19.228 148.558 20.2016 148.496 21.6599C148.761 23.8941 150.014 24.887 152.256 24.6385C152.603 24.5518 152.931 24.4169 153.239 24.2336C153.498 24.0227 153.749 23.801 153.991 23.5685C154.472 23.9819 154.944 24.4061 155.408 24.8409C155.447 24.8988 155.447 24.9566 155.408 25.0144C154.581 25.9339 153.55 26.4641 152.314 26.605C150.452 26.8583 148.842 26.3474 147.484 25.0723C146.269 23.6048 145.922 21.9468 146.443 20.0983C146.896 18.6437 147.831 17.6315 149.248 17.0619C149.691 16.9079 150.135 16.7826 150.578 16.6859Z" fill="#030711"/>
<path opacity="0.973" fill-rule="evenodd" clip-rule="evenodd" d="M185.512 16.6859C187.199 16.4713 188.703 16.8858 190.023 17.9294C190.172 18.049 190.288 18.1936 190.37 18.3632C189.924 18.8653 189.442 19.328 188.924 19.7513C188.018 18.7341 186.9 18.3967 185.57 18.7391C184.205 19.228 183.492 20.2016 183.43 21.6599C183.694 23.8941 184.948 24.887 187.189 24.6385C187.536 24.5518 187.864 24.4169 188.173 24.2336C188.432 24.0227 188.683 23.801 188.924 23.5685C189.406 23.9819 189.878 24.4061 190.341 24.8409C190.38 24.8988 190.38 24.9566 190.341 25.0144C189.515 25.9339 188.483 26.4641 187.247 26.605C185.385 26.8583 183.776 26.3474 182.418 25.0723C181.203 23.6048 180.856 21.9468 181.377 20.0983C181.83 18.6437 182.765 17.6315 184.182 17.0619C184.625 16.9079 185.068 16.7826 185.512 16.6859Z" fill="#030711"/>
<path opacity="0.979" fill-rule="evenodd" clip-rule="evenodd" d="M85.8013 16.8016C87.2669 16.792 88.7319 16.8016 90.1969 16.8305C91.2356 16.8249 92.1801 17.1141 93.0309 17.6981C94.0986 18.6841 94.4548 19.889 94.1009 21.3129C93.6416 22.6973 92.6873 23.4974 91.2379 23.7131C90.1801 23.7951 89.1194 23.8241 88.0569 23.7999C88.0569 24.6867 88.0569 25.5736 88.0569 26.4604C87.305 26.4604 86.5531 26.4604 85.8013 26.4604C85.8013 23.2408 85.8013 20.0212 85.8013 16.8016ZM88.0569 18.7102C88.8285 18.7006 89.5994 18.7102 90.3704 18.7392C91.3305 18.8411 91.851 19.3713 91.932 20.3297C91.8516 21.2876 91.3311 21.8177 90.3704 21.9202C89.5994 21.9491 88.8285 21.9588 88.0569 21.9491C88.0569 20.8695 88.0569 19.7899 88.0569 18.7102Z" fill="#030711"/>
<path opacity="0.974" fill-rule="evenodd" clip-rule="evenodd" d="M105.234 16.8016C108.049 16.8016 110.864 16.8016 113.679 16.8016C113.679 17.4378 113.679 18.074 113.679 18.7103C112.657 18.7103 111.635 18.7103 110.613 18.7103C110.613 21.2937 110.613 23.877 110.613 26.4604C109.861 26.4604 109.109 26.4604 108.358 26.4604C108.358 23.877 108.358 21.2937 108.358 18.7103C107.317 18.7103 106.275 18.7103 105.234 18.7103C105.234 18.074 105.234 17.4378 105.234 16.8016Z" fill="#030711"/>
<path opacity="0.975" fill-rule="evenodd" clip-rule="evenodd" d="M114.835 16.8016C117.283 16.8016 119.732 16.8016 122.18 16.8016C122.18 17.4186 122.18 18.0355 122.18 18.6524C120.484 18.6524 118.787 18.6524 117.091 18.6524C117.091 19.3465 117.091 20.0405 117.091 20.7345C118.594 20.7345 120.098 20.7345 121.602 20.7345C121.602 21.3129 121.602 21.8913 121.602 22.4697C120.098 22.4697 118.594 22.4697 117.091 22.4697C117.091 23.2023 117.091 23.9348 117.091 24.6675C118.845 24.6675 120.6 24.6675 122.354 24.6675C122.354 25.2844 122.354 25.9013 122.354 26.5182C119.848 26.5182 117.341 26.5182 114.835 26.5182C114.835 23.2794 114.835 20.0405 114.835 16.8016Z" fill="#030711"/>
<path opacity="0.978" fill-rule="evenodd" clip-rule="evenodd" d="M124.089 16.8016C125.554 16.792 127.019 16.8016 128.484 16.8305C129.523 16.8249 130.468 17.1141 131.318 17.6981C132.305 18.5927 132.681 19.7013 132.446 21.0237C132.232 22.1441 131.606 22.9442 130.567 23.424C131.266 24.4366 131.979 25.4392 132.707 26.4315C131.878 26.47 131.048 26.47 130.22 26.4315C129.602 25.5639 128.986 24.6964 128.369 23.8288C127.694 23.7999 127.019 23.7902 126.345 23.7999C126.345 24.6867 126.345 25.5736 126.345 26.4604C125.593 26.4604 124.841 26.4604 124.089 26.4604C124.089 23.2408 124.089 20.0212 124.089 16.8016ZM126.345 18.7102C127.116 18.7006 127.887 18.7102 128.658 18.7392C129.633 18.8464 130.153 19.3862 130.22 20.3586C130.048 21.4683 129.393 22.0081 128.253 21.978C127.617 22.0069 126.981 22.0166 126.345 22.0069C126.345 20.908 126.345 19.8091 126.345 18.7102Z" fill="#030711"/>
<path opacity="0.975" fill-rule="evenodd" clip-rule="evenodd" d="M161.394 16.8016C163.842 16.8016 166.291 16.8016 168.739 16.8016C168.739 17.4186 168.739 18.0355 168.739 18.6524C167.043 18.6524 165.346 18.6524 163.65 18.6524C163.65 19.3465 163.65 20.0405 163.65 20.7345C165.153 20.7345 166.657 20.7345 168.161 20.7345C168.161 21.3129 168.161 21.8913 168.161 22.4697C166.657 22.4697 165.153 22.4697 163.65 22.4697C163.65 23.2023 163.65 23.9348 163.65 24.6675C165.404 24.6675 167.159 24.6675 168.913 24.6675C168.913 25.2844 168.913 25.9013 168.913 26.5182C166.407 26.5182 163.9 26.5182 161.394 26.5182C161.394 23.2794 161.394 20.0405 161.394 16.8016Z" fill="#030711"/>
<path opacity="0.975" fill-rule="evenodd" clip-rule="evenodd" d="M191.816 16.8016C194.264 16.8016 196.713 16.8016 199.161 16.8016C199.161 17.4186 199.161 18.0355 199.161 18.6524C197.465 18.6524 195.768 18.6524 194.072 18.6524C194.072 19.3465 194.072 20.0405 194.072 20.7345C195.575 20.7345 197.079 20.7345 198.583 20.7345C198.583 21.3129 198.583 21.8913 198.583 22.4697C197.079 22.4697 195.575 22.4697 194.072 22.4697C194.072 23.2023 194.072 23.9348 194.072 24.6675C195.826 24.6675 197.581 24.6675 199.335 24.6675C199.335 25.2844 199.335 25.9013 199.335 26.5182C196.829 26.5182 194.322 26.5182 191.816 26.5182C191.816 23.2794 191.816 20.0405 191.816 16.8016Z" fill="#030711"/>
<path opacity="0.977" fill-rule="evenodd" clip-rule="evenodd" d="M72.6719 16.8595C73.3283 16.8403 73.9842 16.8595 74.6383 16.9173C75.8142 18.8452 76.9906 20.7731 78.1664 22.701C79.3283 20.7826 80.4752 18.8548 81.6077 16.9173C82.2491 16.8602 82.8945 16.8409 83.5452 16.8595C83.5608 20.0598 83.5805 23.2601 83.603 26.4604C82.8899 26.4604 82.1762 26.4604 81.4631 26.4604C81.4642 24.6091 81.4353 22.7584 81.3763 20.908C80.4914 22.4194 79.595 23.9231 78.6869 25.4193C78.3075 25.4951 77.9316 25.4951 77.5591 25.4193C76.6672 23.9252 75.7615 22.4407 74.8408 20.9659C74.8118 22.7973 74.802 24.6288 74.8118 26.4604C74.0987 26.4604 73.385 26.4604 72.6719 26.4604C72.6719 23.2601 72.6719 20.0597 72.6719 16.8595Z" fill="#030711"/>
<path opacity="0.985" fill-rule="evenodd" clip-rule="evenodd" d="M95.6331 16.8595C96.385 16.8595 97.1369 16.8595 97.8887 16.8595C97.8789 18.6525 97.8887 20.4455 97.9176 22.2383C97.998 24.285 99.0293 25.0465 101.012 24.5229C101.541 24.244 101.878 23.8102 102.024 23.2215C102.085 22.8967 102.124 22.5689 102.14 22.2383C102.169 20.4455 102.178 18.6525 102.169 16.8595C102.901 16.8595 103.634 16.8595 104.366 16.8595C104.376 18.961 104.366 21.0624 104.338 23.1637C104.09 25.0112 103.059 26.1391 101.243 26.5471C99.9853 26.7696 98.7707 26.6347 97.5995 26.1423C96.3844 25.4001 95.7384 24.3108 95.662 22.8745C95.6331 20.8696 95.6233 18.8646 95.6331 16.8595Z" fill="#030711"/>
<path opacity="0.987" fill-rule="evenodd" clip-rule="evenodd" d="M156.883 16.8595C157.635 16.8595 158.387 16.8595 159.138 16.8595C159.138 20.0598 159.138 23.2601 159.138 26.4604C158.387 26.4604 157.635 26.4604 156.883 26.4604C156.883 23.2601 156.883 20.0598 156.883 16.8595Z" fill="#030711"/>
<path opacity="0.992" fill-rule="evenodd" clip-rule="evenodd" d="M170.706 16.8595C171.342 16.8498 171.979 16.8595 172.614 16.8884C174.166 18.7873 175.718 20.6864 177.27 22.5853C177.299 20.6768 177.309 18.7682 177.299 16.8595C178.032 16.8595 178.764 16.8595 179.497 16.8595C179.497 20.0597 179.497 23.2601 179.497 26.4604C178.86 26.47 178.224 26.4604 177.588 26.4315C176.036 24.5325 174.484 22.6335 172.932 20.7345C172.903 22.643 172.894 24.5517 172.903 26.4604C172.171 26.4604 171.438 26.4604 170.706 26.4604C170.706 23.2601 170.706 20.0597 170.706 16.8595Z" fill="#030711"/>
<path fill-rule="evenodd" clip-rule="evenodd" d="M19.6935 18.2475C20.0926 18.3119 20.4203 18.4951 20.6767 18.797C20.4752 19.1145 20.2727 19.4326 20.0694 19.7513C19.8573 19.4043 19.6453 19.0572 19.4332 18.7102C19.3947 18.6331 19.3947 18.556 19.4332 18.4789C19.5296 18.4076 19.6164 18.3304 19.6935 18.2475Z" fill="#030711"/>
<path fill-rule="evenodd" clip-rule="evenodd" d="M23.2795 18.3054C24.5776 18.2064 25.2042 18.804 25.1592 20.0983C24.8169 20.9879 24.1711 21.3445 23.2216 21.1683C22.2722 20.7298 21.9927 20.0261 22.383 19.0573C22.6068 18.7075 22.9056 18.4568 23.2795 18.3054Z" fill="#030711"/>
<path fill-rule="evenodd" clip-rule="evenodd" d="M29.1208 19.0573C30.5838 19.112 31.1332 19.8445 30.7691 21.2551C30.0254 22.2413 29.1964 22.3184 28.2821 21.4864C27.6915 20.3762 27.971 19.5665 29.1208 19.0573Z" fill="#030711"/>
<path fill-rule="evenodd" clip-rule="evenodd" d="M21.3129 19.1151C21.3708 19.1151 21.4286 19.1151 21.4864 19.1151C21.423 19.7716 21.5483 20.3885 21.8624 20.9659C22.2583 21.4249 22.7402 21.7719 23.3083 22.007C23.3372 22.72 23.3469 23.4333 23.3372 24.1469C23.1625 24.1761 22.989 24.2147 22.8167 24.2626C22.7781 24.2433 22.7396 24.224 22.701 24.2048C21.9973 23.0288 21.2937 21.8527 20.59 20.6767C20.5514 20.5418 20.5514 20.4068 20.59 20.2719C20.8171 19.8749 21.0581 19.4893 21.3129 19.1151Z" fill="#030711"/>
<path fill-rule="evenodd" clip-rule="evenodd" d="M25.882 20.4453C26.3263 20.4956 26.7697 20.5534 27.2123 20.6189C27.3005 20.9318 27.4065 21.2403 27.5304 21.5442C27.5776 21.7446 27.5583 21.9374 27.4725 22.1226C26.732 22.9211 25.9704 23.7018 25.188 24.465C24.7799 24.4736 24.4136 24.3482 24.0891 24.0891C24.012 23.3758 24.012 22.6624 24.0891 21.9491C24.4485 21.8465 24.7762 21.6826 25.0723 21.4575C25.3765 21.1441 25.6464 20.8067 25.882 20.4453Z" fill="#030711"/>
<path fill-rule="evenodd" clip-rule="evenodd" d="M19.9827 21.1394C20.0945 21.2054 20.1813 21.3018 20.243 21.4286C20.8816 22.5226 21.5274 23.6118 22.1805 24.6963C22.0648 24.8506 21.9492 25.0048 21.8335 25.159C21.7564 25.1976 21.6792 25.1976 21.6021 25.159C21.0868 24.9062 20.5758 24.6459 20.0695 24.3782C20.0981 23.9949 20.0981 23.6093 20.0695 23.2215C19.9302 22.8083 19.7471 22.4227 19.52 22.0648C19.6134 21.7237 19.7677 21.4153 19.9827 21.1394Z" fill="#030711"/>
<path fill-rule="evenodd" clip-rule="evenodd" d="M17.5536 22.2383C18.8242 22.1691 19.4315 22.7667 19.3755 24.0312C19.0569 24.9478 18.411 25.3045 17.4379 25.1012C16.6608 24.7717 16.3427 24.1837 16.4836 23.3372C16.6601 22.7848 17.0168 22.4185 17.5536 22.2383Z" fill="#030711"/>
<path fill-rule="evenodd" clip-rule="evenodd" d="M23.2796 24.841C24.3446 24.7315 24.9808 25.1942 25.1882 26.229C25.0535 27.5019 24.3594 27.9935 23.1061 27.7039C22.4995 27.4079 22.1911 26.9163 22.1807 26.229C22.2897 25.561 22.6561 25.0983 23.2796 24.841Z" fill="#030711"/>
<path opacity="0.971" fill-rule="evenodd" clip-rule="evenodd" d="M54.627 31.1452C55.5609 31.1189 56.361 31.4273 57.0272 32.0706C57.689 33.1658 57.5829 34.1779 56.7091 35.107C56.3729 35.4005 56.0066 35.6511 55.6102 35.8589C56.1597 36.3697 56.7091 36.8807 57.2586 37.3915C57.5085 36.9405 57.6724 36.4585 57.7502 35.9456C58.3453 36.1281 58.9428 36.3016 59.5431 36.4662C59.4066 37.2692 59.1174 38.0115 58.6756 38.6929C59.0631 39.0227 59.4292 39.3697 59.7745 39.7339C59.4089 40.1767 59.0428 40.6201 58.6756 41.0642C58.6177 41.1028 58.5599 41.1028 58.5021 41.0642C58.1279 40.7479 57.7712 40.4106 57.4321 40.052C56.4841 40.7921 55.4044 41.1391 54.1932 41.0931C52.9763 41.1632 51.9353 40.7777 51.07 39.9364C50.3584 38.9317 50.3392 37.9099 51.0122 36.871C51.4555 36.3313 51.9856 35.8976 52.6027 35.5697C51.5846 34.5978 51.4015 33.4892 52.0532 32.2441C52.7525 31.5003 53.6104 31.1339 54.627 31.1452ZM54.3378 32.7068C55.0007 32.5749 55.4248 32.8255 55.6102 33.4586C55.5704 33.6732 55.4837 33.866 55.3499 34.037C55.0707 34.2922 54.7622 34.5043 54.4246 34.6732C53.9849 34.4202 53.7247 34.0442 53.6438 33.5454C53.6768 33.3497 53.7443 33.1665 53.8462 32.9959C54.0013 32.8754 54.1652 32.7789 54.3378 32.7068ZM53.7594 36.7553C53.9001 36.8276 54.0351 36.9144 54.1643 37.0156C54.7908 37.6036 55.4174 38.1916 56.044 38.7796C56.0826 38.8182 56.0826 38.8567 56.044 38.8953C55.0822 39.477 54.1086 39.5252 53.1232 39.0399C52.5516 38.5068 52.5226 37.9381 53.0365 37.3337C53.2716 37.1268 53.5126 36.934 53.7594 36.7553Z" fill="#030711"/>
<path opacity="0.973" fill-rule="evenodd" clip-rule="evenodd" d="M86.553 31.1452C88.2402 30.9305 89.7439 31.345 91.0643 32.3887C91.213 32.5082 91.3286 32.6528 91.4113 32.8224C90.9648 33.3246 90.4831 33.7873 89.9654 34.2105C89.0591 33.1933 87.9411 32.8559 86.6109 33.1984C85.2459 33.6873 84.5328 34.6608 84.4709 36.1191C84.7352 38.3534 85.9886 39.3463 88.2303 39.0977C88.5773 39.011 88.9053 38.8761 89.2135 38.6929C89.4727 38.4819 89.7237 38.2602 89.9654 38.0278C90.4466 38.4412 90.9186 38.8653 91.3824 39.3002C91.4212 39.358 91.4212 39.4158 91.3824 39.4737C90.5559 40.3931 89.5241 40.9233 88.2882 41.0642C86.4264 41.3175 84.8168 40.8066 83.4588 39.5315C82.2436 38.064 81.8966 36.406 82.4177 34.5575C82.8706 33.1029 83.8058 32.0907 85.2228 31.5211C85.6658 31.3671 86.1094 31.2419 86.553 31.1452Z" fill="#030711"/>
<path opacity="0.976" fill-rule="evenodd" clip-rule="evenodd" d="M118.884 31.1452C120.915 30.8946 122.621 31.5115 124.002 32.996C125.088 34.5493 125.319 36.2266 124.696 38.0278C123.899 39.7885 122.539 40.8006 120.619 41.0642C118.617 41.3478 116.93 40.7598 115.558 39.3002C114.416 37.7425 114.166 36.046 114.806 34.2105C115.613 32.4491 116.972 31.4273 118.884 31.1452ZM119.462 33.0538C121.473 33.0983 122.572 34.1201 122.759 36.1192C122.613 37.9809 121.61 39.0027 119.751 39.1845C117.892 39.0027 116.889 37.9809 116.744 36.1192C116.858 34.3854 117.764 33.3636 119.462 33.0538Z" fill="#030711"/>
<path opacity="0.976" fill-rule="evenodd" clip-rule="evenodd" d="M138.606 31.1452C140.637 30.8946 142.344 31.5115 143.725 32.996C144.81 34.5493 145.042 36.2266 144.419 38.0278C143.621 39.7885 142.262 40.8006 140.341 41.0642C138.34 41.3478 136.653 40.7598 135.281 39.3002C134.139 37.7425 133.888 36.046 134.529 34.2105C135.336 32.4491 136.695 31.4273 138.606 31.1452ZM139.185 33.0538C141.196 33.0983 142.295 34.1201 142.481 36.1192C142.336 37.9809 141.333 39.0027 139.474 39.1845C137.615 39.0027 136.612 37.9809 136.466 36.1192C136.581 34.3854 137.487 33.3636 139.185 33.0538Z" fill="#030711"/>
<path opacity="0.974" fill-rule="evenodd" clip-rule="evenodd" d="M150.231 31.1452C151.699 30.9676 153.068 31.2471 154.338 31.9838C154.672 32.1922 154.961 32.4525 155.205 32.7646C154.725 33.2257 154.243 33.6884 153.759 34.1527C152.315 32.8462 150.772 32.7209 149.132 33.7768C148.235 34.678 147.936 35.748 148.236 36.9867C148.788 38.5412 149.897 39.2642 151.562 39.1556C152.029 39.1112 152.472 38.9858 152.892 38.7796C152.95 37.8357 152.969 36.8911 152.95 35.9456C153.644 35.9456 154.338 35.9456 155.032 35.9456C155.051 37.2765 155.032 38.6067 154.974 39.9364C153.014 41.2005 150.932 41.4415 148.728 40.6593C146.526 39.5631 145.571 37.7798 145.865 35.3094C146.171 33.5694 147.126 32.3259 148.728 31.579C149.226 31.3969 149.726 31.2523 150.231 31.1452Z" fill="#030711"/>
<path opacity="0.974" fill-rule="evenodd" clip-rule="evenodd" d="M63.9966 31.2608C66.8115 31.2608 69.6258 31.2608 72.4408 31.2608C72.4408 31.897 72.4408 32.5332 72.4408 33.1695C71.4188 33.1695 70.3974 33.1695 69.3754 33.1695C69.3754 35.7529 69.3754 38.3362 69.3754 40.9196C68.6235 40.9196 67.8717 40.9196 67.1198 40.9196C67.1198 38.3362 67.1198 35.7529 67.1198 33.1695C66.0787 33.1695 65.0376 33.1695 63.9966 33.1695C63.9966 32.5332 63.9966 31.897 63.9966 31.2608Z" fill="#030711"/>
<path opacity="0.975" fill-rule="evenodd" clip-rule="evenodd" d="M73.5977 31.2608C76.0459 31.2608 78.4947 31.2608 80.9429 31.2608C80.9429 31.8778 80.9429 32.4947 80.9429 33.1116C79.2466 33.1116 77.5497 33.1116 75.8533 33.1116C75.8533 33.8057 75.8533 34.4997 75.8533 35.1937C77.3571 35.1937 78.8608 35.1937 80.3646 35.1937C80.3646 35.7721 80.3646 36.3505 80.3646 36.9289C78.8608 36.9289 77.3571 36.9289 75.8533 36.9289C75.8533 37.6615 75.8533 38.394 75.8533 39.1267C77.6075 39.1267 79.3623 39.1267 81.1165 39.1267C81.1165 39.7436 81.1165 40.3605 81.1165 40.9774C78.6104 40.9774 76.1037 40.9774 73.5977 40.9774C73.5977 37.7386 73.5977 34.4997 73.5977 31.2608Z" fill="#030711"/>
<path opacity="0.987" fill-rule="evenodd" clip-rule="evenodd" d="M92.8569 31.3187C93.6088 31.3187 94.3607 31.3187 95.1126 31.3187C95.1126 32.5718 95.1126 33.8249 95.1126 35.0781C96.5776 35.0781 98.0432 35.0781 99.5082 35.0781C99.5082 33.8249 99.5082 32.5718 99.5082 31.3187C100.26 31.3187 101.012 31.3187 101.764 31.3187C101.764 34.519 101.764 37.7193 101.764 40.9196C101.012 40.9196 100.26 40.9196 99.5082 40.9196C99.5082 39.6086 99.5082 38.2977 99.5082 36.9867C98.0432 36.9867 96.5776 36.9867 95.1126 36.9867C95.1126 38.2977 95.1126 39.6086 95.1126 40.9196C94.3607 40.9196 93.6088 40.9196 92.8569 40.9196C92.8569 37.7193 92.8569 34.519 92.8569 31.3187Z" fill="#030711"/>
<path opacity="0.992" fill-rule="evenodd" clip-rule="evenodd" d="M104.02 31.3187C104.656 31.309 105.293 31.3187 105.928 31.3476C107.48 33.2466 109.032 35.1456 110.584 37.0445C110.613 35.136 110.623 33.2274 110.613 31.3187C111.346 31.3187 112.078 31.3187 112.811 31.3187C112.811 34.519 112.811 37.7193 112.811 40.9196C112.174 40.9293 111.538 40.9196 110.902 40.8907C109.35 38.9917 107.798 37.0927 106.246 35.1938C106.217 37.1023 106.208 39.0109 106.217 40.9196C105.485 40.9196 104.752 40.9196 104.02 40.9196C104.02 37.7193 104.02 34.519 104.02 31.3187Z" fill="#030711"/>
<path opacity="0.975" fill-rule="evenodd" clip-rule="evenodd" d="M126.692 31.3187C127.444 31.3187 128.196 31.3187 128.948 31.3187C128.948 33.9021 128.948 36.4854 128.948 39.0688C130.567 39.0688 132.186 39.0688 133.806 39.0688C133.806 39.705 133.806 40.3413 133.806 40.9775C131.435 40.9775 129.063 40.9775 126.692 40.9775C126.692 37.7579 126.692 34.5383 126.692 31.3187Z" fill="#030711"/>
<path opacity="0.976" fill-rule="evenodd" clip-rule="evenodd" d="M155.668 31.3765C156.488 31.2998 157.317 31.2998 158.155 31.3765C158.975 32.7454 159.793 34.1141 160.613 35.4829C161.481 34.1334 162.319 32.7647 163.129 31.3765C163.899 31.3091 164.67 31.2994 165.442 31.3476C164.191 33.396 162.948 35.4492 161.712 37.5072C161.683 38.6445 161.673 39.782 161.683 40.9196C160.931 40.9196 160.179 40.9196 159.427 40.9196C159.437 39.782 159.427 38.6445 159.398 37.5072C158.163 35.4537 156.92 33.4102 155.668 31.3765Z" fill="#030711"/>
<path fill-rule="evenodd" clip-rule="evenodd" d="M12.811 33.6322C19.7515 33.6322 26.6919 33.6322 33.6323 33.6322C33.6323 34.3262 33.6323 35.0203 33.6323 35.7143C26.6919 35.7143 19.7515 35.7143 12.811 35.7143C12.811 35.0203 12.811 34.3262 12.811 33.6322Z" fill="white"/>
</g>
<defs>
<clipPath id="clip0_1_2">
<rect width="200" height="46.3274" fill="white"/>
</clipPath>
</defs>
</svg>
