<svg width="237" height="52" viewBox="0 0 237 52" fill="none" xmlns="http://www.w3.org/2000/svg">
<rect x="7" width="52" height="52" rx="4" fill="#030711"/>
<circle cx="24" cy="26" r="24" fill="#7C3AED"/>
<path d="M71.824 17.872C70.984 17.872 70.288 17.62 69.736 17.116C69.208 16.612 68.944 15.976 68.944 15.208C68.944 14.44 69.208 13.816 69.736 13.336C70.288 12.832 70.984 12.58 71.824 12.58C72.664 12.58 73.348 12.832 73.876 13.336C74.428 13.816 74.704 14.44 74.704 15.208C74.704 15.976 74.428 16.612 73.876 17.116C73.348 17.62 72.664 17.872 71.824 17.872ZM69.52 38.5V20.644H74.128V38.5H69.52ZM78.9377 38.5V20.644H83.0057L83.3657 23.668C83.9177 22.612 84.7097 21.772 85.7417 21.148C86.7977 20.524 88.0337 20.212 89.4497 20.212C91.6577 20.212 93.3737 20.908 94.5977 22.3C95.8217 23.692 96.4337 25.732 96.4337 28.42V38.5H91.8257V28.852C91.8257 27.316 91.5137 26.14 90.8897 25.324C90.2657 24.508 89.2937 24.1 87.9737 24.1C86.6777 24.1 85.6097 24.556 84.7697 25.468C83.9537 26.38 83.5457 27.652 83.5457 29.284V38.5H78.9377ZM108.796 38.5C106.924 38.5 105.424 38.044 104.296 37.132C103.168 36.22 102.604 34.6 102.604 32.272V24.496H99.544V20.644H102.604L103.144 15.856H107.212V20.644H112.036V24.496H107.212V32.308C107.212 33.172 107.392 33.772 107.752 34.108C108.136 34.42 108.784 34.576 109.696 34.576H111.928V38.5H108.796ZM124.211 38.932C122.411 38.932 120.815 38.548 119.423 37.78C118.031 37.012 116.939 35.932 116.147 34.54C115.355 33.148 114.959 31.54 114.959 29.716C114.959 27.868 115.343 26.224 116.111 24.784C116.903 23.344 117.983 22.228 119.351 21.436C120.743 20.62 122.375 20.212 124.247 20.212C125.999 20.212 127.547 20.596 128.891 21.364C130.235 22.132 131.279 23.188 132.023 24.532C132.791 25.852 133.175 27.328 133.175 28.96C133.175 29.224 133.163 29.5 133.139 29.788C133.139 30.076 133.127 30.376 133.103 30.688H119.531C119.627 32.08 120.107 33.172 120.971 33.964C121.859 34.756 122.927 35.152 124.175 35.152C125.111 35.152 125.891 34.948 126.515 34.54C127.163 34.108 127.643 33.556 127.955 32.884H132.635C132.299 34.012 131.735 35.044 130.943 35.98C130.175 36.892 129.215 37.612 128.063 38.14C126.935 38.668 125.651 38.932 124.211 38.932ZM124.247 23.956C123.119 23.956 122.123 24.28 121.259 24.928C120.395 25.552 119.843 26.512 119.603 27.808H128.495C128.423 26.632 127.991 25.696 127.199 25C126.407 24.304 125.423 23.956 124.247 23.956ZM137.051 38.5V20.644H141.155L141.587 23.992C142.235 22.84 143.111 21.928 144.215 21.256C145.343 20.56 146.663 20.212 148.175 20.212V25.072H146.879C145.871 25.072 144.971 25.228 144.179 25.54C143.387 25.852 142.763 26.392 142.307 27.16C141.875 27.928 141.659 28.996 141.659 30.364V38.5H137.051ZM156.148 38.5L149.596 20.644H154.42L158.956 34.144L163.492 20.644H168.316L161.728 38.5H156.148ZM173.707 17.872C172.867 17.872 172.171 17.62 171.619 17.116C171.091 16.612 170.827 15.976 170.827 15.208C170.827 14.44 171.091 13.816 171.619 13.336C172.171 12.832 172.867 12.58 173.707 12.58C174.547 12.58 175.231 12.832 175.759 13.336C176.311 13.816 176.587 14.44 176.587 15.208C176.587 15.976 176.311 16.612 175.759 17.116C175.231 17.62 174.547 17.872 173.707 17.872ZM171.403 38.5V20.644H176.011V38.5H171.403ZM189.496 38.932C187.696 38.932 186.1 38.548 184.708 37.78C183.316 37.012 182.224 35.932 181.432 34.54C180.64 33.148 180.244 31.54 180.244 29.716C180.244 27.868 180.628 26.224 181.396 24.784C182.188 23.344 183.268 22.228 184.636 21.436C186.028 20.62 187.66 20.212 189.532 20.212C191.284 20.212 192.832 20.596 194.176 21.364C195.52 22.132 196.564 23.188 197.308 24.532C198.076 25.852 198.46 27.328 198.46 28.96C198.46 29.224 198.448 29.5 198.424 29.788C198.424 30.076 198.412 30.376 198.388 30.688H184.816C184.912 32.08 185.392 33.172 186.256 33.964C187.144 34.756 188.212 35.152 189.46 35.152C190.396 35.152 191.176 34.948 191.8 34.54C192.448 34.108 192.928 33.556 193.24 32.884H197.92C197.584 34.012 197.02 35.044 196.228 35.98C195.46 36.892 194.5 37.612 193.348 38.14C192.22 38.668 190.936 38.932 189.496 38.932ZM189.532 23.956C188.404 23.956 187.408 24.28 186.544 24.928C185.68 25.552 185.128 26.512 184.888 27.808H193.78C193.708 26.632 193.276 25.696 192.484 25C191.692 24.304 190.708 23.956 189.532 23.956ZM205.125 38.5L199.905 20.644H204.477L207.573 33.496L211.173 20.644H216.285L219.885 33.496L223.017 20.644H227.589L222.333 38.5H217.545L213.729 25.144L209.913 38.5H205.125ZM231.879 38.752C231.039 38.752 230.343 38.488 229.791 37.96C229.263 37.432 228.999 36.796 228.999 36.052C228.999 35.284 229.263 34.636 229.791 34.108C230.343 33.58 231.039 33.316 231.879 33.316C232.719 33.316 233.403 33.58 233.931 34.108C234.483 34.636 234.759 35.284 234.759 36.052C234.759 36.796 234.483 37.432 233.931 37.96C233.403 38.488 232.719 38.752 231.879 38.752Z" fill="#030711"/>
</svg>
